<svg xmlns="http://www.w3.org/2000/svg" viewBox="0 0 500 500"><path d="M62.77 59.04h35.16v11.19H62.77zM105.83 172.8h35.16v11.19h-35.16zM78.32 44.93c-5.84.1-20.81.35-26.45.42h-8.71l.46-.46v11.19l-.5-.5c5.84 0 20.73.08 26.37.16l8.79.11-.24.23.24-11.19Zm0 0 .23 11.19v.24h-.24c-4.39.06-13.2.16-17.58.19l-17.58.07h-.5V44.48H51.97c5.6.06 20.5.31 26.29.41ZM377.6 139.3c-5.84.1-20.81.35-26.45.41h-8.71l.46-.46v11.19l-.5-.5c5.84 0 20.73.07 26.37.15l8.79.11-.24.24.24-11.19Zm0 0 .24 11.19v.23h-.24c-4.39.05-13.19.16-17.58.19l-17.58.07h-.5v-.5l.06-11.18v-.46H351.32c5.6.06 20.51.31 26.29.41ZM358 125.19c-5.84.1-20.81.35-26.45.41l-8.71.05.46-.46v11.19l-.5-.5c5.84 0 20.73.07 26.37.15l8.79.11-.24.24.24-11.19Zm0 0 .24 11.19v.23H358c-4.39.06-13.2.16-17.58.19l-17.58.07h-.5v-.5l.05-11.19v-.46H331.71c5.6.06 20.5.31 26.29.41ZM303.3 139.3h35.16v11.19H303.3zM421.68 44.93h35.16v11.19h-35.16zM402.07 390.48h35.16v11.19h-35.16zM456.84 376.37c-5.84.1-20.81.35-26.45.42h-8.71l.46-.46v11.19l-.5-.5c5.84 0 20.73.08 26.37.16l8.79.11-.24.23.24-11.19Zm0 0 .24 11.19v.24h-.24c-4.39.06-13.19.16-17.58.2l-17.58.06h-.5v-.51l.05-11.19v-.45H430.55c5.6.06 20.51.32 26.29.41ZM97.93 390.48c-5.84.1-20.81.35-26.45.42h-8.71l.46-.46v11.19l-.5-.5 17.58.07c4.38 0 13.2.14 17.58.2l-.24.23.24-11.19Zm0 0 .24 11.19v.24h-.24c-4.39.06-13.2.16-17.58.2l-17.58.06h-.5V390H71.59c5.6.06 20.5.32 26.29.41ZM316.43 33.52c-54.14 0-54.23 77 0 77s54.23-77 0-77Z" style="fill:#ebebeb"/><path d="M349.35 79.23C346.46 92.47 335.48 104 316.42 104c-45 0-44.93-63.9 0-63.9h.88c-42.28.77-42.07 61.28.83 61.28 17.51-.02 27.93-10.14 31.22-22.15Z" style="fill:#dbdbdb"/><path d="M316.75 48.49a1.37 1.37 0 0 1 1.41 1.28v2.15a20.06 20.06 0 0 1 10.42 3.75c.53.37.82.69.82 1.23a1.44 1.44 0 0 1-1.52 1.34 1.49 1.49 0 0 1-1.06-.38 17.45 17.45 0 0 0-8.82-3.48v15c8.9 1.71 12.65 4.77 12.65 10 0 5.68-5.21 9.7-12.53 9.91v4.21a1.41 1.41 0 0 1-2.81 0v-4.23a23 23 0 0 1-13.18-5.2 1.37 1.37 0 0 1-.65-1.12 1.47 1.47 0 0 1 1.52-1.34 1.57 1.57 0 0 1 1 .39 19.7 19.7 0 0 0 11.42 4.88v-15.3c-8.78-1.76-12.41-4.71-12.41-10.07s5.15-9.54 12.3-9.7v-2a1.36 1.36 0 0 1 1.44-1.32Zm-1.29 20.36V54.22c-5.68.11-9.43 3.22-9.43 7.07-.03 3.65 1.88 5.9 9.43 7.56Zm2.54 3.27v14.79c5.86-.1 9.66-3.21 9.66-7.29.04-3.69-2.01-5.95-9.66-7.5ZM404.34 208.67c-37.8 19.36-9.19 75.38 28.67 56s9.19-75.39-28.67-56Z" style="fill:#dbdbdb"/><path d="M407.89 206.85c-36 18.45-7.41 74.47 28.67 56s7.44-74.48-28.67-56Z" style="fill:#ebebeb"/><path d="M446.82 228.87c3 10.62 0 22.72-12.7 29.21-29.94 15.34-53.7-31.15-23.8-46.47l.59-.29c-27.84 15-5.17 58.91 23.38 44.29 11.65-5.96 14.82-16.88 12.53-26.74Z" style="fill:#dbdbdb"/><path d="M419 216a1.07 1.07 0 0 1 1.22.85l.31 1.72a14.34 14.34 0 0 1 8.22 1.63c.44.24.7.46.78.89a1.12 1.12 0 0 1-.92 1.28 1.08 1.08 0 0 1-.83-.17 12.6 12.6 0 0 0-7-1.63l2.22 12.05c6.79.19 10 2.15 10.76 6.37.82 4.57-2.43 8.5-7.78 9.64l.61 3.36a1.05 1.05 0 0 1-2.07.38l-.62-3.41a16.42 16.42 0 0 1-10.45-2.43 1.13 1.13 0 0 1-.64-.81 1.12 1.12 0 0 1 1.72-1.12 14.11 14.11 0 0 0 9.11 2.41l-2.22-12.28c-6.72-.26-9.82-2.15-10.6-6.45s2.41-8.36 7.64-9.44l-.3-1.64a1.07 1.07 0 0 1 .84-1.2Zm2 16.55-2.12-11.76c-4.17.84-6.47 3.83-5.91 6.94.52 2.91 2.22 4.47 8.03 4.8Zm2.37 2.28 2.15 11.9c4.3-.87 6.65-3.87 6.05-7.15-.57-2.99-2.38-4.53-8.21-4.77ZM79.13 137.71c33.8 6.07 24.88 56.13-9 50.06s-24.85-56.13 9-50.06Z" style="fill:#dbdbdb"/><path d="M76 137.14c32.21 5.78 23.28 55.85-9 50.06s-23.3-55.85 9-50.06Z" style="fill:#ebebeb"/><path d="M51 163.35c.18 8.92 5.37 17.56 16.71 19.59 26.77 4.81 34.18-36.75 7.45-41.54l-.52-.09c25.06 5 17.88 44.34-7.65 39.76-10.37-1.86-15.39-9.56-15.99-17.72Z" style="fill:#dbdbdb"/><path d="M73.36 145.05a.85.85 0 0 1 .68 1l-.26 1.39a11.57 11.57 0 0 1 5.74 3.56 1 1 0 0 1 .34.89.9.9 0 0 1-1.06.7.87.87 0 0 1-.59-.36 10.09 10.09 0 0 0-4.79-3.23l-1.82 9.74c5.08 2.1 6.94 4.5 6.31 7.91-.69 3.69-4.27 5.72-8.65 5.05l-.51 2.72a.85.85 0 1 1-1.67-.31l.51-2.75a13.31 13.31 0 0 1-7.2-4.84.9.9 0 0 1 .79-1.51.94.94 0 0 1 .58.36 11.36 11.36 0 0 0 6.2 4.43l1.84-9.92c-5-2.12-6.8-4.43-6.16-7.91s4.22-5.63 8.49-4.94l.24-1.32a.85.85 0 0 1 .99-.66Zm-3.23 13.08 1.77-9.5c-3.39-.56-6 1-6.46 3.55s.41 4.04 4.69 5.95Zm1.14 2.41-1.79 9.6c3.49.58 6.13-1 6.63-3.66.44-2.4-.5-4.09-4.84-5.94Z" style="fill:#dbdbdb"/><path d="M53.06 461.23c126.17-.62 267.71-.62 393.88 0-126.17.61-267.71.61-393.88 0Z" style="fill:#263238"/><path d="M277.26 78.66H108.2a17.26 17.26 0 0 0-17.1 17.42v348a17.27 17.27 0 0 0 17.1 17.42h169.06a17.29 17.29 0 0 0 17.12-17.42v-348a17.28 17.28 0 0 0-17.12-17.42Zm6.42 354.67c0 9.16-6.86 16.57-15.32 16.57H117.12c-8.48 0-15.34-7.41-15.34-16.57V109.27c0-18.66 6.86-19.57 15.34-19.57h30.3c1.76 0 3.2 2 3.2 4.48v1.07c0 5.81 3.18 5.83 7.08 5.83h70.06c3.94 0 7.1 0 7.1-5.83v-1.07c0-2.48 1.42-4.48 3.21-4.48h30.29c8.46 0 15.32 2.48 15.32 19.57Z" style="fill:#263238"/><path d="M283.68 109.27v324.06c0 9.16-6.86 16.57-15.32 16.57H117.12c-8.48 0-15.34-7.41-15.34-16.57V109.27c0-18.66 6.86-19.57 15.34-19.57h30.3c1.76 0 3.2 2 3.2 4.48v1.07c0 5.81 3.18 5.83 7.08 5.83h70.06c3.94 0 7.1 0 7.1-5.83v-1.07c0-2.48 1.42-4.48 3.21-4.48h30.29c8.46 0 15.32 2.48 15.32 19.57Z" style="fill:#fff"/><path d="M283.68 345.29v88c0 9.16-6.86 16.57-15.32 16.57H117.12c-8.48 0-15.34-7.41-15.34-16.57v-88Z" style="fill:#ebebeb"/><path d="M283.68 109.27v28.57h-181.9v-28.57c0-18.66 6.86-19.57 15.34-19.57h30.3c1.76 0 3.2 2 3.2 4.48v1.07c0 5.81 3.18 5.83 7.08 5.83h70.06c3.94 0 7.1 0 7.1-5.83v-1.07c0-2.48 1.42-4.48 3.21-4.48h30.29c8.46 0 15.32 2.48 15.32 19.57Z" style="fill:#00b3ff"/><path d="m142.19 97-.29.29-.17.16a4 4 0 0 0-5.64 0l-.16-.17c-.09-.1-.19-.19-.29-.29l.37-.33a4.7 4.7 0 0 1 .85-.54 4.14 4.14 0 0 1 1.14-.42 5.39 5.39 0 0 1 .56-.08h.89a4.77 4.77 0 0 1 1 .25 4.66 4.66 0 0 1 1.37.8l.31.28Z" style="fill:#fff"/><path d="M137 98.35c-.16-.15-.31-.3-.46-.46a3.33 3.33 0 0 1 4.71 0l-.46.46a2.69 2.69 0 0 0-3.79 0Z" style="fill:#fff"/><path d="m140.34 98.81-.46.46a1.38 1.38 0 0 0-1-.4 1.36 1.36 0 0 0-1 .41l-.46-.46a2 2 0 0 1 2.92-.01ZM139.33 99.69a.42.42 0 0 1-.42.42.41.41 0 0 1-.41-.42.41.41 0 0 1 .41-.41.41.41 0 0 1 .42.41ZM113.65 97.86a1.21 1.21 0 1 1 1.2 1.21 1.2 1.2 0 0 1-1.2-1.21ZM117.45 97.86a1.21 1.21 0 1 1 1.2 1.21 1.2 1.2 0 0 1-1.2-1.21ZM121.24 97.86a1.21 1.21 0 1 1 1.21 1.21 1.2 1.2 0 0 1-1.21-1.21ZM125 97.86a1.21 1.21 0 1 1 1.21 1.21 1.2 1.2 0 0 1-1.21-1.21ZM128.84 97.86a1.21 1.21 0 1 1 1.2 1.21 1.2 1.2 0 0 1-1.2-1.21ZM270 100.49h-9.81V96H270Zm-9.31-.5h8.81v-3.54h-8.81Z" style="fill:#fff"/><path d="M261.04 96.72h6.33v3h-6.33zM270.05 97h.87v2.43h-.87zM119.4 130.07l-5.3-4.96 5.3-4.96.82.87-4.36 4.09 4.36 4.09-.82.87z" style="fill:#fff"/><circle cx="270.59" cy="127.52" r=".79" style="fill:#fff"/><circle cx="270.59" cy="124.92" r=".79" style="fill:#fff"/><circle cx="270.59" cy="122.32" r=".79" style="fill:#fff"/><path d="M168.43 127.71v-4a.37.37 0 0 1 .38-.37H171a.38.38 0 0 1 0 .75h-1.85v1.25h1.59a.38.38 0 0 1 .37.38.38.38 0 0 1-.37.38h-1.59v1.64a.38.38 0 0 1-.38.37.37.37 0 0 1-.34-.4ZM173.23 123.82a.37.37 0 0 1-.74 0v-.15a.37.37 0 0 1 .74 0Zm0 1.23v2.66a.37.37 0 1 1-.74 0v-2.66a.37.37 0 0 1 .74 0ZM177.24 126.09v1.63a.35.35 0 0 1-.35.36.36.36 0 0 1-.36-.36v-1.63a.7.7 0 0 0-.71-.69.68.68 0 0 0-.68.69v1.63a.11.11 0 0 1 0 .07.37.37 0 0 1-.36.29.36.36 0 0 1-.36-.36V125a.36.36 0 0 1 .36-.36.39.39 0 0 1 .34.21 1.32 1.32 0 0 1 .72-.21 1.43 1.43 0 0 1 1.4 1.45ZM181.47 126.38v1.34a.36.36 0 0 1-.36.36.38.38 0 0 1-.36-.29 1.59 1.59 0 0 1-2.07-.21 1.8 1.8 0 0 1 0-2.4 1.56 1.56 0 0 1 2.07-.21.37.37 0 0 1 .36-.3.37.37 0 0 1 .36.37Zm-.73 0a1 1 0 0 0-.26-.7.88.88 0 0 0-.64-.28.84.84 0 0 0-.63.28 1 1 0 0 0-.26.7 1.07 1.07 0 0 0 .26.71.86.86 0 0 0 .63.26.9.9 0 0 0 .64-.26 1.07 1.07 0 0 0 .26-.71ZM185.58 126.09v1.63a.36.36 0 0 1-.35.36.37.37 0 0 1-.37-.36v-1.63a.7.7 0 0 0-.7-.69.69.69 0 0 0-.69.69v1.63a.2.2 0 0 1 0 .07.37.37 0 0 1-.36.29.35.35 0 0 1-.36-.36V125a.35.35 0 0 1 .36-.36.36.36 0 0 1 .33.21 1.38 1.38 0 0 1 .73-.21 1.43 1.43 0 0 1 1.41 1.45ZM186.68 126.38a1.73 1.73 0 0 1 1.73-1.71 1.8 1.8 0 0 1 1.09.38.37.37 0 0 1 .07.5.37.37 0 0 1-.51.07 1.1 1.1 0 0 0-.65-.22 1 1 0 1 0 0 2 1.1 1.1 0 0 0 .65-.22.37.37 0 0 1 .51.07.39.39 0 0 1-.07.51 1.92 1.92 0 0 1-1.09.36 1.72 1.72 0 0 1-1.73-1.74ZM190.47 126.38a1.69 1.69 0 0 1 1.67-1.71 1.63 1.63 0 0 1 1.64 1.58s0 0 0 .06a.32.32 0 0 1-.35.27h-2.17a.85.85 0 0 0 .23.45 1.05 1.05 0 0 0 .66.31 1.12 1.12 0 0 0 .71-.17.38.38 0 0 1 .51 0 .31.31 0 0 1 0 .44 1.72 1.72 0 0 1-1.22.45 1.7 1.7 0 0 1-1.68-1.68Zm.75-.34h1.93a1.13 1.13 0 0 0-1-.72 1 1 0 0 0-.93.68ZM198.58 126.23h-.84v1.48a.38.38 0 0 1-.75 0v-4a.37.37 0 0 1 .37-.37h1.22a1.46 1.46 0 1 1 0 2.92Zm-.84-.76h.84a.71.71 0 1 0 0-1.41h-.84ZM203 125a.36.36 0 0 1-.36.36.65.65 0 0 0-.41.13 1 1 0 0 0-.31.33 1.89 1.89 0 0 0-.28.57v1.3a.37.37 0 0 1-.38.36.36.36 0 0 1-.36-.36V125a.35.35 0 0 1 .36-.35.36.36 0 0 1 .38.35.93.93 0 0 1 .14-.14 1.46 1.46 0 0 1 .86-.26.35.35 0 0 1 .36.4ZM204 127.58a1.71 1.71 0 0 1-.47-1.2 1.78 1.78 0 0 1 .47-1.19 1.6 1.6 0 0 1 1.17-.52 1.51 1.51 0 0 1 1.14.52 1.7 1.7 0 0 1 .48 1.19 1.64 1.64 0 0 1-.48 1.2 1.51 1.51 0 0 1-1.14.52 1.6 1.6 0 0 1-1.17-.52Zm.27-1.2a1.11 1.11 0 0 0 .25.73.92.92 0 0 0 .65.25.91.91 0 0 0 .63-.25 1.08 1.08 0 0 0 .27-.73 1 1 0 0 0-.27-.71 1 1 0 0 0-.63-.26 1 1 0 0 0-.65.26 1.08 1.08 0 0 0-.22.71ZM208.86 124.45v.09h.2a.37.37 0 0 1 .38.38.38.38 0 0 1-.38.37h-.2v2.41a.38.38 0 0 1-.75 0v-2.41h-.18a.38.38 0 0 1-.38-.37.37.37 0 0 1 .38-.38h.18v-.09a1.43 1.43 0 0 1 .13-.67.8.8 0 0 1 .49-.43 1.4 1.4 0 0 1 .41 0 .38.38 0 0 1 .37.37.38.38 0 0 1-.37.39.39.39 0 0 0-.18 0s-.1.08-.1.34ZM211 123.82a.36.36 0 0 1-.37.37.37.37 0 0 1-.36-.37v-.15a.36.36 0 0 1 .36-.36.35.35 0 0 1 .37.36Zm0 1.23v2.66a.36.36 0 0 1-.37.37.36.36 0 0 1-.36-.37v-2.66a.37.37 0 1 1 .73 0ZM212.41 123.31a.38.38 0 0 1 .38.37v4a.38.38 0 0 1-.76 0v-4a.38.38 0 0 1 .38-.37ZM213.75 126.38a1.69 1.69 0 0 1 1.66-1.71 1.64 1.64 0 0 1 1.65 1.58s0 0 0 .06a.32.32 0 0 1-.35.27h-2.17a.85.85 0 0 0 .23.45 1 1 0 0 0 .65.31 1.11 1.11 0 0 0 .71-.17.4.4 0 0 1 .52 0 .32.32 0 0 1 0 .44 1.73 1.73 0 0 1-1.23.45 1.7 1.7 0 0 1-1.67-1.68Zm.74-.34h1.93a1.1 1.1 0 0 0-1-.72 1 1 0 0 0-.93.68ZM202.3 93.82h-19.11a1.18 1.18 0 0 1-1.19-1.18 1.18 1.18 0 0 1 1.18-1.18h19.12a1.18 1.18 0 0 1 1.18 1.18 1.18 1.18 0 0 1-1.18 1.18Z" style="fill:#fff"/><path d="M157.68 168.87a.41.41 0 0 1 .41.41v.21a3.4 3.4 0 0 1 1.48.52.51.51 0 0 1 .29.46.53.53 0 0 1-.53.53.55.55 0 0 1-.29-.09 3.58 3.58 0 0 0-1-.42v1.83c1.45.37 2.07 1 2.07 2s-.82 1.75-2 1.87v.57a.41.41 0 0 1-.41.41.41.41 0 0 1-.42-.41v-.59a4.17 4.17 0 0 1-1.95-.75.51.51 0 0 1-.26-.46.52.52 0 0 1 .52-.52.58.58 0 0 1 .32.1 3.28 3.28 0 0 0 1.41.64v-1.88c-1.39-.36-2-.89-2-2a1.91 1.91 0 0 1 2-1.82v-.2a.41.41 0 0 1 .36-.41Zm-.38 3.25v-1.69c-.61.06-.92.39-.92.81s.19.65.92.88Zm.76 1.33v1.74c.61-.07.94-.37.94-.83s-.21-.68-.94-.91ZM165 165.59v9.67a.92.92 0 0 1-.92.9.9.9 0 0 1-.9-.9v-8.06l-.65.38a.89.89 0 0 1-.46.13.92.92 0 0 1-.48-1.69l2-1.19h.24a.1.1 0 0 1 .07 0 .22.22 0 0 1 .11 0h.18a.1.1 0 0 0 .07 0 .24.24 0 0 1 .1 0s.05 0 .06 0 .07.05.1.05l.07.05h.06c.06 0 .05.05.07.06v.07l.06.06V165.33a.45.45 0 0 0 0 .08.17.17 0 0 0 0 .12ZM175.81 173.11a.9.9 0 0 1-.92.9h-.16v1.25a.9.9 0 0 1-1.8 0V174h-5.16a.81.81 0 0 1-.56-.2.87.87 0 0 1-.14-1.26l6.05-7.53a.68.68 0 0 0 .05-.07.12.12 0 0 0 .08 0h.33a.08.08 0 0 0 .06 0h.36a.12.12 0 0 0 .08 0h.16l.09.07h.08l.07.07.05.06.06.09a.11.11 0 0 0 0 .06.93.93 0 0 0 0 .1v.07a.25.25 0 0 1 0 .09v6.75h.16a.91.91 0 0 1 1.06.81Zm-2.88-4.94-3.26 4h3.26ZM178.12 177.63a1.42 1.42 0 0 0 1.11-1.47 1.21 1.21 0 0 1-.93-1.12v-.13a1.06 1.06 0 0 1 1.11-1.1c.74 0 1.18.56 1.18 1.45v.18a3.26 3.26 0 0 1-.8 2.39 2.5 2.5 0 0 1-1.54.7.45.45 0 0 1-.13-.9ZM187.73 169.21a4 4 0 0 1 1.19 2.88 4.09 4.09 0 0 1-1.19 2.87 4 4 0 0 1-2.87 1.2A4 4 0 0 1 182 175a.91.91 0 0 1 0-1.31.93.93 0 0 1 1.31 0 2.16 2.16 0 0 0 1.57.66 2.18 2.18 0 0 0 1.56-.66 2.26 2.26 0 0 0 .65-1.56 2.16 2.16 0 0 0-.65-1.57 2.13 2.13 0 0 0-1.56-.64 2.2 2.2 0 0 0-1.57.64.93.93 0 0 1-1.31 0c-.06-.06-.11-.14-.18-.21s0-.05 0-.05a.12.12 0 0 0 0-.08v-.12c0-.04 0 0 0 0a.66.66 0 0 1 0-.28l.49-4.24a1 1 0 0 1 .41-.65H182.84a1 1 0 0 1 .42-.1H188a.93.93 0 1 1 0 1.85h-4l-.19 1.63a4.09 4.09 0 0 1 1.09-.15 4 4 0 0 1 2.83 1.05ZM198.83 175.26a.89.89 0 0 1-.9.9h-5.83a.87.87 0 0 1-.67-.3.91.91 0 0 1 0-1.28l4.85-4.38a2.08 2.08 0 0 0 .68-1.58 2.12 2.12 0 0 0-.54-1.42 2.05 2.05 0 0 0-1.57-.69 2.14 2.14 0 0 0-1.42.54l-.51.46a.9.9 0 1 1-1.21-1.34l.51-.46a3.84 3.84 0 0 1 2.63-1 3.92 3.92 0 0 1 2.91 1.3 3.84 3.84 0 0 1 1 2.63 4 4 0 0 1-1.29 2.92l-3.1 2.8h3.49a.9.9 0 0 1 .97.9ZM207.3 169.2a4 4 0 0 1 1.19 2.86 4.06 4.06 0 0 1-6.94 2.88.93.93 0 0 1 1.31-1.31 2.15 2.15 0 0 0 1.55.64 2.25 2.25 0 0 0 1.58-.64 2.18 2.18 0 0 0 .65-1.57 2.12 2.12 0 0 0-.65-1.55 2.21 2.21 0 0 0-1.56-.66.81.81 0 0 1-.67-.29.94.94 0 0 1 0-1.31l1.67-1.7h-2.65a.93.93 0 0 1 0-1.85h4.83a.92.92 0 0 1 .93.91 1.07 1.07 0 0 1-.11.45 1.24 1.24 0 0 1-.17.23l-2.06 2.12a3.81 3.81 0 0 1 1.1.79ZM213.78 176.16a2.76 2.76 0 0 1-2.76-2.77V170a.52.52 0 0 1 .52-.52.53.53 0 0 1 .54.52v3.4a1.7 1.7 0 1 0 3.4 0V170a.52.52 0 0 1 .53-.52.52.52 0 0 1 .53.52v3.4a2.77 2.77 0 0 1-2.76 2.76ZM218.57 174.49a.49.49 0 0 1 .7-.06 3.14 3.14 0 0 0 1.82.73 2.08 2.08 0 0 0 1.2-.35.88.88 0 0 0 .41-.69.51.51 0 0 0-.09-.3.76.76 0 0 0-.28-.29 3.81 3.81 0 0 0-1.31-.45 5.38 5.38 0 0 1-1.23-.37 2 2 0 0 1-.89-.75 1.39 1.39 0 0 1-.22-.78 1.78 1.78 0 0 1 .76-1.4 2.85 2.85 0 0 1 1.65-.5 3.81 3.81 0 0 1 2.09.76.49.49 0 0 1 .13.68.48.48 0 0 1-.68.14 2.77 2.77 0 0 0-1.54-.61 1.84 1.84 0 0 0-1.07.33.77.77 0 0 0-.36.6.47.47 0 0 0 .07.27.88.88 0 0 0 .26.24 3 3 0 0 0 1.19.42 5.38 5.38 0 0 1 1.32.41 2.24 2.24 0 0 1 .95.79 1.48 1.48 0 0 1 .23.81 1.84 1.84 0 0 1-.82 1.48 3 3 0 0 1-1.77.55 4.1 4.1 0 0 1-2.44-1 .51.51 0 0 1-.08-.66ZM225.15 175.63V170a.52.52 0 0 1 .53-.52h1.12a3.35 3.35 0 0 1 0 6.69h-1.12a.53.53 0 0 1-.53-.54Zm1.06-.53h.59a2.29 2.29 0 0 0 0-4.57h-.59Z"/><path d="M159.79 188.68a.16.16 0 0 1 .16-.16.16.16 0 0 1 .17.16v4.45a.16.16 0 0 1-.17.16.16.16 0 0 1-.16-.16ZM164.13 191.32a1 1 0 0 0-1-1 1 1 0 0 0-1 1v1.84a.25.25 0 0 1 0 .07.13.13 0 0 1-.12.06.14.14 0 0 1-.11-.09v-3a.15.15 0 0 1 .16-.16.16.16 0 0 1 .16.16v.32a1.36 1.36 0 0 1 2.39.88v1.81a.16.16 0 0 1-.16.16.17.17 0 0 1-.17-.16ZM165.69 191.62a1.68 1.68 0 0 1 1.72-1.67 1.73 1.73 0 0 1 1.06.37.16.16 0 0 1-.2.25 1.38 1.38 0 0 0-.86-.3 1.35 1.35 0 1 0 0 2.7 1.38 1.38 0 0 0 .86-.3.17.17 0 0 1 .22 0 .17.17 0 0 1 0 .24 1.72 1.72 0 0 1-1.05.35 1.68 1.68 0 0 1-1.75-1.64ZM171.15 190a1.67 1.67 0 1 1-1.59 1.67 1.64 1.64 0 0 1 1.59-1.67Zm0 3a1.35 1.35 0 0 0 0-2.7 1.35 1.35 0 0 0 0 2.7ZM178.77 191.32a1.06 1.06 0 0 0-1-1 1 1 0 0 0-1 1v1.84a.14.14 0 0 1-.08.09.12.12 0 0 1-.08 0h-.05v-1.82a1 1 0 1 0-2.06 0v1.82a.16.16 0 0 1-.08.13h-.07c-.06 0-.11-.06-.13-.12v-3.06a.15.15 0 0 1 .15-.15.16.16 0 0 1 .17.15v.33a1.3 1.3 0 0 1 1-.48 1.34 1.34 0 0 1 1.19.71 1.37 1.37 0 0 1 1.2-.71 1.36 1.36 0 0 1 1.36 1.36v1.82a.16.16 0 0 1-.17.15.15.15 0 0 1-.15-.15ZM180.23 191.63a1.62 1.62 0 0 1 3.24-.12.16.16 0 0 1-.17.15h-2.74a1.33 1.33 0 0 0 1.3 1.29 1.29 1.29 0 0 0 1.08-.61.15.15 0 0 1 .21-.06.18.18 0 0 1 .06.24 1.61 1.61 0 0 1-1.35.75 1.65 1.65 0 0 1-1.63-1.64Zm.35-.27h2.53a1.29 1.29 0 0 0-1.25-1.08 1.31 1.31 0 0 0-1.28 1.08ZM161 200.47h-1a.37.37 0 0 1-.37-.37.38.38 0 0 1 .37-.38h1v-.94a.38.38 0 0 1 .39-.39.39.39 0 0 1 .39.39v.94h1a.38.38 0 0 1 .37.38.37.37 0 0 1-.37.37h-1v.95a.39.39 0 0 1-.39.39.38.38 0 0 1-.39-.39ZM165.77 197.3a.28.28 0 0 1 .29.29v.15a2.57 2.57 0 0 1 1.06.37.39.39 0 0 1 .21.33.38.38 0 0 1-.39.38.35.35 0 0 1-.2-.07 2.79 2.79 0 0 0-.7-.3v1.31c1 .26 1.48.68 1.48 1.41s-.59 1.25-1.46 1.33v.41a.28.28 0 0 1-.29.29.3.3 0 0 1-.3-.29v-.42a3 3 0 0 1-1.4-.54.37.37 0 0 1-.18-.32.37.37 0 0 1 .37-.38.36.36 0 0 1 .23.08 2.3 2.3 0 0 0 1 .45v-1.34c-1-.26-1.46-.64-1.46-1.41a1.37 1.37 0 0 1 1.43-1.3v-.14a.29.29 0 0 1 .31-.29Zm-.27 2.32v-1.21c-.44 0-.66.28-.66.58s.16.46.66.63Zm.54.95v1.24c.43-.05.67-.27.67-.59s-.15-.49-.71-.65ZM169.65 198.1v4a.38.38 0 0 1-.39.38.37.37 0 0 1-.37-.38v-3.35l-.27.16a.36.36 0 0 1-.19 0 .39.39 0 0 1-.33-.19.37.37 0 0 1 .13-.51l.84-.5h.22v.05ZM173.6 202.12a.37.37 0 0 1-.38.38h-2.43a.38.38 0 0 1-.28-.12.39.39 0 0 1 0-.54l2-1.82a.86.86 0 0 0 .29-.66.88.88 0 0 0-.23-.59.84.84 0 0 0-.65-.29.89.89 0 0 0-.59.23l-.22.19a.37.37 0 0 1-.53 0 .38.38 0 0 1 0-.53l.21-.19a1.61 1.61 0 0 1 1.1-.43 1.66 1.66 0 0 1 1.21.54 1.61 1.61 0 0 1 .43 1.1 1.68 1.68 0 0 1-.54 1.22l-1.29 1.16h1.45a.38.38 0 0 1 .45.35ZM174.54 200.11a2.87 2.87 0 0 1 .46-1.63 1.56 1.56 0 0 1 1.27-.76 1.54 1.54 0 0 1 1.26.76 3.12 3.12 0 0 1 0 3.26 1.54 1.54 0 0 1-1.26.76 1.56 1.56 0 0 1-1.27-.76 2.87 2.87 0 0 1-.46-1.63Zm2.69 0a2.17 2.17 0 0 0-.33-1.21.77.77 0 0 0-.63-.42.82.82 0 0 0-.65.42 2.45 2.45 0 0 0 0 2.42.85.85 0 0 0 .65.42.79.79 0 0 0 .63-.42 2.17 2.17 0 0 0 .33-1.21ZM179.38 200.11a3 3 0 0 1 .47-1.63 1.54 1.54 0 0 1 1.26-.76 1.58 1.58 0 0 1 1.27.76 3.18 3.18 0 0 1 0 3.26 1.58 1.58 0 0 1-1.27.76 1.54 1.54 0 0 1-1.26-.76 3 3 0 0 1-.47-1.63Zm2.7 0a2.25 2.25 0 0 0-.33-1.21.78.78 0 0 0-.64-.42.79.79 0 0 0-.64.42 2.38 2.38 0 0 0 0 2.42.82.82 0 0 0 .64.42.81.81 0 0 0 .64-.42 2.25 2.25 0 0 0 .33-1.21Z" style="fill:#a6a6a6"/><path d="M202.07 200.41a.41.41 0 0 1 .4-.41h1.28a.41.41 0 0 1 .4.41.4.4 0 0 1-.4.4h-1.28a.4.4 0 0 1-.4-.4ZM206.7 197.3a.28.28 0 0 1 .29.29v.15a2.68 2.68 0 0 1 1.06.37.38.38 0 0 1-.18.71.31.31 0 0 1-.2-.07 2.7 2.7 0 0 0-.71-.3v1.31c1 .26 1.48.68 1.48 1.41s-.58 1.25-1.45 1.33v.41a.3.3 0 0 1-.59 0v-.42a3 3 0 0 1-1.4-.49.35.35 0 0 1-.18-.32.37.37 0 0 1 .37-.38.4.4 0 0 1 .23.08 2.3 2.3 0 0 0 1 .45v-1.34c-1-.26-1.46-.64-1.46-1.41a1.37 1.37 0 0 1 1.43-1.3v-.14a.29.29 0 0 1 .31-.34Zm-.27 2.32v-1.21c-.44 0-.66.28-.66.58s.13.46.66.63Zm.53.95v1.24c.44-.05.68-.27.68-.59s-.15-.49-.64-.65ZM211.67 199.61a1.63 1.63 0 0 1 .5 1.2 1.68 1.68 0 0 1-.5 1.19 1.64 1.64 0 0 1-1.19.5 1.62 1.62 0 0 1-1.18-.5.36.36 0 0 1 0-.54.38.38 0 0 1 .54 0 .91.91 0 0 0 .66.27.92.92 0 0 0 .65-.27 1 1 0 0 0 .27-.65.91.91 0 0 0-.27-.66.9.9 0 0 0-.65-.26.94.94 0 0 0-.66.26.38.38 0 0 1-.54 0 .73.73 0 0 1-.08-.09.24.24 0 0 1 0-.12l.2-1.76a.41.41 0 0 1 .17-.28h.05a.37.37 0 0 1 .18-.05h2a.39.39 0 0 1 0 .78h-1.72l-.08.67a1.82 1.82 0 0 1 .46-.06 1.64 1.64 0 0 1 1.19.37ZM213.26 199.38a1.65 1.65 0 0 1 3.3-.18v.39a4 4 0 0 1-.24 1.4 2.34 2.34 0 0 1-.88 1.16 2 2 0 0 1-1 .32.37.37 0 0 1-.4-.36.39.39 0 0 1 .37-.39 1.28 1.28 0 0 0 .64-.2 1.4 1.4 0 0 0 .43-.47l.09-.18a1.63 1.63 0 0 1-.66.14 1.65 1.65 0 0 1-1.65-1.63Zm.75 0a.9.9 0 1 0 .9-.9.9.9 0 0 0-.91.9ZM217.63 200.11a3 3 0 0 1 .46-1.63 1.56 1.56 0 0 1 1.27-.76 1.54 1.54 0 0 1 1.26.76 3.12 3.12 0 0 1 0 3.26 1.54 1.54 0 0 1-1.26.76 1.56 1.56 0 0 1-1.27-.76 3 3 0 0 1-.46-1.63Zm2.69 0a2.25 2.25 0 0 0-.32-1.21.79.79 0 0 0-.64-.42.82.82 0 0 0-.65.42 2.45 2.45 0 0 0 0 2.42.85.85 0 0 0 .65.42.82.82 0 0 0 .64-.42 2.25 2.25 0 0 0 .32-1.21Z" style="fill:#00b3ff"/><path d="M196.17 192.4a.14.14 0 0 1 .21 0 2.59 2.59 0 0 0 1.62.6 1.79 1.79 0 0 0 1.05-.31.87.87 0 0 0 .41-.71.75.75 0 0 0-.39-.65 2.82 2.82 0 0 0-1.1-.39 3.08 3.08 0 0 1-1.12-.41 1 1 0 0 1-.49-.83 1.1 1.1 0 0 1 .49-.89 2 2 0 0 1 1.16-.35 2.7 2.7 0 0 1 1.47.55.15.15 0 0 1-.16.26 2.37 2.37 0 0 0-1.31-.51 1.72 1.72 0 0 0-1 .29.81.81 0 0 0-.37.65.66.66 0 0 0 .35.58 2.63 2.63 0 0 0 1 .36 3.32 3.32 0 0 1 1.21.44 1.08 1.08 0 0 1 .53.9 1.23 1.23 0 0 1-.54 1 2.11 2.11 0 0 1-1.23.37 3 3 0 0 1-1.76-.69.16.16 0 0 1-.03-.26ZM200.86 191.68v-1.57a.17.17 0 0 1 .34 0v.49a1.57 1.57 0 0 1 1.27-.65 1.66 1.66 0 0 1 0 3.32 1.57 1.57 0 0 1-1.27-.65v1.91a.17.17 0 0 1-.34 0Zm.34-.07a1.28 1.28 0 1 0 2.55 0 1.28 1.28 0 1 0-2.55-.06ZM205.06 191.63a1.62 1.62 0 1 1 3.23-.12.15.15 0 0 1-.16.15h-2.74a1.31 1.31 0 0 0 1.29 1.29 1.27 1.27 0 0 0 1.08-.61.17.17 0 0 1 .22-.06.19.19 0 0 1 .05.24 1.59 1.59 0 0 1-1.35.75 1.64 1.64 0 0 1-1.62-1.64Zm.35-.27h2.53a1.28 1.28 0 0 0-2.53 0ZM211.84 191.32a1 1 0 0 0-1-1 1.05 1.05 0 0 0-1 1v1.84a.11.11 0 0 1 0 .07.16.16 0 0 1-.12.06h-.05a.15.15 0 0 1-.1-.09v-3a.16.16 0 0 1 .17-.16.16.16 0 0 1 .15.16v.32a1.36 1.36 0 0 1 2.4.88v1.81a.17.17 0 0 1-.17.16.16.16 0 0 1-.16-.16ZM216.17 192.65a1.6 1.6 0 0 1-1.28.64 1.67 1.67 0 0 1 0-3.34 1.59 1.59 0 0 1 1.28.66v-1.93a.17.17 0 0 1 .34 0v4.45a.17.17 0 0 1-.34 0Zm0-1v-.11a1.34 1.34 0 1 0 0 .11ZM218 189a.16.16 0 0 1 .16-.16.16.16 0 0 1 .17.16v.16a.17.17 0 1 1-.33 0Zm0 1.09a.16.16 0 0 1 .16-.16.16.16 0 0 1 .17.16v3a.16.16 0 0 1-.17.16.16.16 0 0 1-.16-.16ZM222.3 191.32a1 1 0 0 0-1-1 1 1 0 0 0-1 1v1.84a.25.25 0 0 1 0 .07.13.13 0 0 1-.12.06.14.14 0 0 1-.11-.09v-3a.15.15 0 0 1 .16-.16.16.16 0 0 1 .16.16v.32a1.36 1.36 0 0 1 2.39.88v1.81a.16.16 0 0 1-.16.16.17.17 0 0 1-.17-.16ZM227 193a1.57 1.57 0 0 1-1.58 1.57 1.83 1.83 0 0 1-.69-.16.18.18 0 0 1-.07-.22.15.15 0 0 1 .22-.07 1.22 1.22 0 0 0 .54.12 1.24 1.24 0 0 0 1.25-1.24v-.41a1.52 1.52 0 0 1-1.25.65 1.66 1.66 0 0 1 0-3.32 1.53 1.53 0 0 1 1.25.66v-.5a.17.17 0 0 1 .17-.16.17.17 0 0 1 .16.16Zm-.33-1.42a1.25 1.25 0 1 0-1.25 1.34 1.28 1.28 0 0 0 1.27-1.31ZM190.3 189.89h.23v12.93h-.23z" style="fill:#a6a6a6"/><path d="M136.21 299.84c23.17-.18 46.34-.14 69.5-.21s35.33 0 58.5.21c-23.17.18-35.33.14-58.5.21s-46.33-.05-69.5-.21ZM136.21 285c23.17-.19 46.34-.14 69.5-.21s35.33 0 58.5.21c-23.17.18-35.33.14-58.5.21s-46.33-.07-69.5-.21ZM136.21 270.08c23.17-.19 46.34-.14 69.5-.22 23.17.08 35.33 0 58.5.22-23.17.18-35.33.14-58.5.21-23.16-.08-46.33-.03-69.5-.21ZM136.21 255.2c23.17-.19 46.34-.14 69.5-.22 23.17.08 35.33 0 58.5.22-23.17.18-35.33.13-58.5.21-23.16-.08-46.33-.03-69.5-.21ZM136.21 240.32c23.17-.19 46.34-.14 69.5-.22 23.17.08 35.33 0 58.5.22-23.17.18-35.33.13-58.5.21-23.16-.08-46.33-.03-69.5-.21ZM136.21 225.44c23.17-.19 46.34-.14 69.5-.22 23.17.08 35.33 0 58.5.22-23.17.18-35.33.13-58.5.21-23.16-.08-46.33-.03-69.5-.21Z" style="fill:#455a64"/><path d="M139.71 219.21c.16 16.2.29 32.39.3 48.59l.15 48.58-.45-.4 67.75.1 22.87.08 33.88.22-33.88.22-22.87.08-67.75.1h-.44v-.4l.14-48.58c.02-16.2.15-32.39.3-48.59Z" style="fill:#455a64"/><path d="M139.71 305.63c0-3.71 7.7-22.2 13.19-22.2 3.66 0 6.83 9.58 8.91 9.58s3.9-4.73 6.47-4.73 8.17 13.18 10.74 13.18 10.74-28.86 15.37-28.86 6.61 11.1 9.61 11.1 3.17-6 6.59-6 7.44 14.89 10 14.89 7.81-11.34 10.74-11.34 6.46 5.52 9.15 5.52 6.59-8.58 8.91-8.58 3.66 5.21 5.49 5.21 9.28-13.35 9.28-13.35v46.3H139.71Z" style="fill:#00b3ff;opacity:.2"/><path d="M139.71 305.63c.65-5.66 6.72-19.86 12.08-22.23 4.1-1.45 6.74 6.08 8.94 8.48.75 1 1.35 1 2.26.25 2.46-2.27 4.7-6.78 7.82-2.25 2.62 3.36 4.42 7.44 7.25 10.55a1.93 1.93 0 0 0 .95.6 3.13 3.13 0 0 0 .81-1 79.77 79.77 0 0 0 3.9-8.75c2.52-5.94 4.48-12.21 8.25-17.56.7-.94 1.89-2 3.18-1.54a5.39 5.39 0 0 1 2.83 2c2.06 2.58 3 5.76 4.91 8.28a1.45 1.45 0 0 0 2.18.37c1.6-1.32 2-3.83 3.86-5.1 2.52-1.72 4.36 1.28 5.39 3.15 1.58 2.84 2.75 5.82 4.26 8.67a8.64 8.64 0 0 0 1.73 2.46c.38.28.61.08 1-.14 2.8-2.43 4.45-5.91 6.91-8.71a7.09 7.09 0 0 1 2.59-2.17c1.25-.36 2.32.35 3.28 1 2.24 1.44 3.79 3.95 6.37 4.49a2 2 0 0 0 1.27-.5c2.48-2.06 3.86-5.08 6.27-7.28 2.79-2.49 4.41 2.44 6 4 .33.37.84.71 1.24.5a9.57 9.57 0 0 0 2.15-2.28 121.32 121.32 0 0 0 6.89-10.86 122.17 122.17 0 0 1-6.71 11 9.71 9.71 0 0 1-2.21 2.4 1 1 0 0 1-.89 0c-1.63-1-2.23-3.09-3.59-4.34a1.6 1.6 0 0 0-2.53-.06c-2.3 2.2-3.72 5.3-6.21 7.4a2.56 2.56 0 0 1-1.66.64c-3.33-.6-5.09-4.09-8.06-5.26-1.58-.7-2.58.75-3.58 1.85-2.44 2.85-4.08 6.46-7 8.93-2.53 2-4.45-3.88-5.41-5.51-.92-1.94-1.81-3.89-2.84-5.74-1-1.69-2.33-4.12-4.09-2.82s-2 3.68-3.81 5.1a2.42 2.42 0 0 1-3.47-.51c-2.17-2.15-5.6-13.71-9.43-8.79-3.67 5.19-5.67 11.46-8.17 17.29a76.58 76.58 0 0 1-4 8.87c-.38.55-.58 1-1.31 1.36a1.43 1.43 0 0 1-1.11-.25c-2-1.55-3.14-3.89-4.47-5.89a40.18 40.18 0 0 0-4.49-6.53c-.34-.3-.65-.6-1.12-.53-2 .42-3.08 2.73-4.66 4a1.89 1.89 0 0 1-3.17-.36c-2.06-2.26-4.66-9.67-8.28-8.42-5.27 2.3-11.5 16.2-12.25 21.77Z" style="fill:#00b3ff"/><path d="M124.73 312.09a.13.13 0 0 1 .13.13v.22a1.74 1.74 0 0 1 1 .38.17.17 0 0 1 .08.13.14.14 0 0 1-.24.1 1.61 1.61 0 0 0-.83-.36v1.54c.84.18 1.19.49 1.19 1a1.08 1.08 0 0 1-1.18 1v.43a.13.13 0 0 1-.26 0v-.43a2.08 2.08 0 0 1-1.24-.54.13.13 0 0 1-.06-.11.14.14 0 0 1 .14-.14.13.13 0 0 1 .1 0 1.7 1.7 0 0 0 1.07.5v-1.57c-.83-.18-1.17-.48-1.17-1a1.07 1.07 0 0 1 1.16-1v-.21a.13.13 0 0 1 .11-.07Zm-.12 2.09v-1.51c-.53 0-.89.34-.89.73s.18.6.89.78Zm.24.33V316c.55 0 .91-.33.91-.75s-.19-.58-.91-.74ZM126.8 314.36a2.41 2.41 0 0 1 .37-1.35 1.18 1.18 0 0 1 1-.58 1.2 1.2 0 0 1 1 .58 2.63 2.63 0 0 1 0 2.69 1.2 1.2 0 0 1-1 .58 1.18 1.18 0 0 1-1-.58 2.4 2.4 0 0 1-.37-1.34Zm.27 0a2.26 2.26 0 0 0 .32 1.19.94.94 0 0 0 .74.46.93.93 0 0 0 .74-.46 2.33 2.33 0 0 0 0-2.39.9.9 0 0 0-.74-.46.92.92 0 0 0-.74.46 2.27 2.27 0 0 0-.32 1.2ZM130.86 312.56a.13.13 0 0 1 .13-.13.13.13 0 0 1 .14.13v2.59l1.6-1.59a.13.13 0 1 1 .19.19l-1 1 1 1.27a.14.14 0 0 1 0 .2.15.15 0 0 1-.09 0 .11.11 0 0 1-.1 0l-1-1.25-.55.55v.62a.13.13 0 0 1-.14.13.13.13 0 0 1-.13-.13ZM125 297a.13.13 0 0 1 .13.13v.22a1.78 1.78 0 0 1 1 .39.14.14 0 0 1 .08.12.14.14 0 0 1-.14.14.11.11 0 0 1-.1 0 1.69 1.69 0 0 0-.83-.36v1.55c.84.17 1.19.49 1.19 1a1.09 1.09 0 0 1-1.18 1v.43a.13.13 0 1 1-.26 0v-.44a2.07 2.07 0 0 1-1.24-.53.16.16 0 0 1-.06-.12.14.14 0 0 1 .14-.14.11.11 0 0 1 .09 0 1.75 1.75 0 0 0 1.08.5v-1.57c-.83-.18-1.17-.48-1.17-1a1.08 1.08 0 0 1 1.16-1v-.21a.13.13 0 0 1 .11-.11Zm-.12 2.09v-1.5c-.54 0-.89.33-.89.72s.2.6.91.77Zm.24.34v1.52c.55 0 .91-.33.91-.75s-.17-.62-.89-.78ZM127.12 300.81a.13.13 0 0 1 0-.2.14.14 0 0 1 .19 0 1.06 1.06 0 0 0 .73.3 1 1 0 0 0 .73-.3 1.06 1.06 0 0 0 .3-.73 1 1 0 0 0-.3-.73 1 1 0 0 0-.72-.3 1.06 1.06 0 0 0-.74.3.12.12 0 0 1-.19 0V299l.19-1.56a.11.11 0 0 1 .06-.1.11.11 0 0 1 .08 0h1.8a.14.14 0 0 1 0 .28h-1.68l-.14 1.14a1.29 1.29 0 0 1 1.57.24 1.25 1.25 0 0 1 .38.92 1.31 1.31 0 0 1-.38.93 1.4 1.4 0 0 1-.93.38 1.31 1.31 0 0 1-.95-.42ZM130.57 297.46a.13.13 0 0 1 .14-.13.13.13 0 0 1 .13.13v2.6l1.6-1.59a.12.12 0 0 1 .19 0 .13.13 0 0 1 0 .18l-1 1 1 1.28a.13.13 0 0 1 0 .19.14.14 0 0 1-.19 0l-1-1.25-.55.55v.61a.13.13 0 0 1-.13.14.14.14 0 0 1-.14-.14ZM123.81 281.89a.13.13 0 0 1 .13.13v.22a1.85 1.85 0 0 1 1 .39s.08.07.08.12a.15.15 0 0 1-.15.14.09.09 0 0 1-.09 0 1.59 1.59 0 0 0-.83-.35V284c.84.18 1.19.49 1.19 1a1.09 1.09 0 0 1-1.18 1v.43a.13.13 0 0 1-.26 0v-.44a2.07 2.07 0 0 1-1.24-.53.16.16 0 0 1-.06-.12.13.13 0 0 1 .13-.13.17.17 0 0 1 .1 0 1.82 1.82 0 0 0 1.08.51v-1.58c-.83-.18-1.17-.48-1.17-1a1.07 1.07 0 0 1 1.16-1V282a.13.13 0 0 1 .11-.11Zm-.12 2.09v-1.5c-.54 0-.89.33-.89.73s.2.6.89.79Zm.24.34v1.52c.55 0 .91-.33.91-.75s-.19-.61-.91-.77ZM126.45 282.62l-.54.32h-.07a.15.15 0 0 1-.12-.07.13.13 0 0 1 0-.18l.75-.46a.14.14 0 0 1 .18.05.18.18 0 0 1 0 .1V286a.13.13 0 0 1-.13.13.13.13 0 0 1-.13-.13ZM127.72 284.16a2.43 2.43 0 0 1 .37-1.35 1.09 1.09 0 0 1 1.93 0 2.52 2.52 0 0 1 .37 1.35 2.46 2.46 0 0 1-.37 1.34 1.08 1.08 0 0 1-1.93 0 2.37 2.37 0 0 1-.37-1.34Zm.27 0a2.21 2.21 0 0 0 .33 1.2.82.82 0 0 0 1.47 0 2.21 2.21 0 0 0 .33-1.2 2.15 2.15 0 0 0-.33-1.19.81.81 0 0 0-1.47 0 2.15 2.15 0 0 0-.32 1.19ZM131.78 282.36a.14.14 0 0 1 .14-.13.13.13 0 0 1 .13.13V285l1.6-1.59a.12.12 0 0 1 .19 0 .13.13 0 0 1 0 .18l-1 1 1 1.28a.13.13 0 0 1 0 .19.13.13 0 0 1-.08 0 .12.12 0 0 1-.11 0l-1-1.25-.56.55v.64a.13.13 0 0 1-.13.13.14.14 0 0 1-.14-.13ZM124.1 266.79a.13.13 0 0 1 .13.13v.23a1.77 1.77 0 0 1 1 .38c.05 0 .08.07.08.13a.15.15 0 0 1-.15.14.16.16 0 0 1-.1 0 1.5 1.5 0 0 0-.82-.36v1.54c.84.18 1.19.49 1.19 1a1.08 1.08 0 0 1-1.18 1v.43a.13.13 0 1 1-.26 0V271a2.06 2.06 0 0 1-1.24-.54.15.15 0 0 1-.07-.11.14.14 0 0 1 .14-.14.12.12 0 0 1 .1 0 1.87 1.87 0 0 0 1.08.5v-1.57c-.83-.18-1.17-.49-1.17-1a1.08 1.08 0 0 1 1.16-1v-.21a.13.13 0 0 1 .11-.14Zm-.12 2.1v-1.51c-.54 0-.89.33-.89.73s.18.61.91.78Zm.24.33v1.52c.55 0 .91-.33.91-.75s-.2-.61-.91-.77ZM126.74 267.53l-.55.31a.07.07 0 0 1-.06 0 .14.14 0 0 1-.12-.07.13.13 0 0 1 0-.18l.75-.45a.13.13 0 0 1 .18.05.16.16 0 0 1 0 .1v3.54a.13.13 0 0 1-.13.13.13.13 0 0 1-.13-.13ZM128 270.61a.12.12 0 0 1 0-.19.13.13 0 0 1 .2 0 1 1 0 0 0 .72.3 1 1 0 0 0 .73-.31 1 1 0 0 0 .3-.73 1.07 1.07 0 0 0-.29-.73 1 1 0 0 0-.73-.3 1 1 0 0 0-.73.31.15.15 0 0 1-.2 0l.18-1.55a.1.1 0 0 1 .06-.1.13.13 0 0 1 .09 0h1.79a.14.14 0 0 1 0 .28h-1.68l-.14 1.15a1.28 1.28 0 0 1 .66-.18 1.3 1.3 0 0 1 1.3 1.3 1.28 1.28 0 0 1-.38.93 1.33 1.33 0 0 1-.93.38 1.31 1.31 0 0 1-.95-.56ZM131.5 267.27a.13.13 0 0 1 .13-.14.14.14 0 0 1 .14.14v2.59l1.59-1.59a.13.13 0 0 1 .19.19l-1 1 1.05 1.27a.13.13 0 0 1 0 .19.09.09 0 0 1-.08 0 .12.12 0 0 1-.11-.05l-1-1.25-.55.55v.62a.14.14 0 0 1-.14.13.13.13 0 0 1-.13-.13ZM123.11 251.7a.13.13 0 0 1 .13.13v.22a1.77 1.77 0 0 1 1 .38.17.17 0 0 1 .08.13.15.15 0 0 1-.15.14.16.16 0 0 1-.1 0 1.66 1.66 0 0 0-.82-.36v1.54c.83.18 1.19.49 1.19 1a1.08 1.08 0 0 1-1.18 1v.43a.13.13 0 0 1-.13.14.14.14 0 0 1-.14-.14v-.43a2.08 2.08 0 0 1-1.24-.54.15.15 0 0 1-.06-.11.15.15 0 0 1 .14-.14.13.13 0 0 1 .1 0 1.75 1.75 0 0 0 1.08.5v-1.57c-.83-.18-1.17-.48-1.17-1a1.06 1.06 0 0 1 1.15-1v-.21a.14.14 0 0 1 .12-.11Zm-.12 2.09v-1.5c-.54 0-.89.33-.89.72s.17.61.9.78Zm.24.34v1.52c.55 0 .91-.33.91-.75s-.2-.61-.91-.77ZM125.12 255.66l1.8-1.63a1 1 0 0 0 .33-.74 1 1 0 0 0-.26-.66 1 1 0 0 0-.73-.32 1 1 0 0 0-.68.25l-.18.17a.13.13 0 0 1-.19-.19l.19-.18a1.31 1.31 0 0 1 .86-.32 1.23 1.23 0 0 1 .92.41 1.21 1.21 0 0 1 .33.84 1.27 1.27 0 0 1-.41.94l-1.54 1.39h1.82a.13.13 0 0 1 .13.14.13.13 0 0 1-.13.13h-2.17a.15.15 0 0 1-.1 0 .14.14 0 0 1 .01-.23ZM128.42 254a2.49 2.49 0 0 1 .37-1.35 1.2 1.2 0 0 1 1-.58 1.18 1.18 0 0 1 1 .58 2.57 2.57 0 0 1 0 2.69 1.18 1.18 0 0 1-1 .58 1.2 1.2 0 0 1-1-.58 2.48 2.48 0 0 1-.37-1.34Zm.27 0a2.17 2.17 0 0 0 .33 1.19.82.82 0 0 0 1.47 0 2.27 2.27 0 0 0 0-2.39.82.82 0 0 0-1.47 0 2.18 2.18 0 0 0-.33 1.2ZM132.49 252.17a.13.13 0 0 1 .13-.13.13.13 0 0 1 .14.13v2.59l1.59-1.59a.14.14 0 0 1 .19 0 .12.12 0 0 1 0 .19l-1 1 1.05 1.27a.15.15 0 0 1 0 .2.15.15 0 0 1-.09 0 .13.13 0 0 1-.11 0l-1-1.25-.55.55v.62a.13.13 0 0 1-.14.13.13.13 0 0 1-.13-.13ZM123.4 236.6a.13.13 0 0 1 .13.13v.27a1.81 1.81 0 0 1 1 .39s.08.07.08.12a.15.15 0 0 1-.15.14.12.12 0 0 1-.1 0 1.66 1.66 0 0 0-.82-.36v1.55c.83.17 1.19.49 1.19 1a1.09 1.09 0 0 1-1.18 1v.43a.13.13 0 0 1-.13.13.13.13 0 0 1-.14-.13v-.44a2.07 2.07 0 0 1-1.24-.53.2.2 0 0 1-.06-.12.15.15 0 0 1 .14-.14.19.19 0 0 1 .1 0 1.73 1.73 0 0 0 1.07.5V239c-.82-.18-1.16-.48-1.16-1a1.07 1.07 0 0 1 1.15-1v-.21a.13.13 0 0 1 .12-.19Zm-.13 2.09v-1.5a.8.8 0 0 0-.88.73c0 .37.17.6.88.77Zm.25.34v1.52c.55 0 .91-.33.91-.75s-.2-.61-.91-.8ZM125.4 240.56l1.81-1.63a1 1 0 0 0 .33-.73 1 1 0 0 0-.26-.67 1 1 0 0 0-1.41-.07l-.18.17a.13.13 0 0 1-.19-.19l.19-.17a1.26 1.26 0 0 1 .85-.33 1.26 1.26 0 0 1 1.26 1.26 1.27 1.27 0 0 1-.41.93l-1.54 1.4h1.82a.13.13 0 0 1 .13.13.13.13 0 0 1-.13.14h-2.17a.14.14 0 0 1-.1-.24ZM128.74 240.42a.14.14 0 0 1 .2-.2 1 1 0 0 0 1.45 0 1 1 0 0 0 .31-.73 1 1 0 0 0-1.76-.73.12.12 0 0 1-.19 0l.18-1.56a.15.15 0 0 1 .06-.1.12.12 0 0 1 .09 0h1.79a.14.14 0 1 1 0 .28h-1.68l-.13 1.14a1.31 1.31 0 0 1 .65-.17 1.3 1.3 0 0 1 1.3 1.3 1.31 1.31 0 0 1-.38.93 1.36 1.36 0 0 1-.92.38 1.32 1.32 0 0 1-.97-.54ZM132.2 237.07a.13.13 0 0 1 .13-.13.13.13 0 0 1 .14.13v2.6l1.59-1.6a.14.14 0 0 1 .19 0 .12.12 0 0 1 0 .19l-1 1 1 1.28a.14.14 0 0 1 0 .19h-.09a.16.16 0 0 1-.11-.05l-1-1.25-.55.55v.61a.14.14 0 0 1-.14.14.13.13 0 0 1-.13-.14ZM123.05 221.5a.13.13 0 0 1 .13.13v.22a1.82 1.82 0 0 1 1 .39s.08.07.08.13a.13.13 0 0 1-.14.13.13.13 0 0 1-.1 0 1.53 1.53 0 0 0-.83-.36v1.54c.84.18 1.19.49 1.19 1a1.09 1.09 0 0 1-1.18 1v.43a.13.13 0 1 1-.26 0v-.44a2.07 2.07 0 0 1-1.24-.53.14.14 0 0 1-.06-.12.15.15 0 0 1 .14-.14.19.19 0 0 1 .1 0 1.7 1.7 0 0 0 1.07.5v-1.56c-.83-.19-1.17-.49-1.17-1a1.08 1.08 0 0 1 1.16-1v-.21a.13.13 0 0 1 .11-.11Zm-.12 2.09v-1.5a.81.81 0 0 0-.89.73c-.04.37.18.6.89.77Zm.24.34v1.52c.55 0 .91-.33.91-.75s-.19-.61-.91-.77ZM127.4 222.08l-1 1a1.29 1.29 0 0 1 .66.35 1.33 1.33 0 0 1 .38.93 1.3 1.3 0 0 1-2.23.92.12.12 0 0 1 0-.19.14.14 0 0 1 .19 0 1 1 0 0 0 1.46 0 1 1 0 0 0 .3-.73 1 1 0 0 0-.3-.73 1 1 0 0 0-.73-.3.14.14 0 0 1-.11-.06.13.13 0 0 1 0-.2l1-1h-1.52a.14.14 0 0 1 0-.28h1.8a.14.14 0 0 1 .14.14.14.14 0 0 1 0 .06.05.05 0 0 1-.04.09ZM128.48 223.77a2.43 2.43 0 0 1 .37-1.35 1.19 1.19 0 0 1 1-.58 1.22 1.22 0 0 1 1 .58 2.52 2.52 0 0 1 .37 1.35 2.46 2.46 0 0 1-.37 1.34 1.21 1.21 0 0 1-1 .59 1.18 1.18 0 0 1-1-.59 2.37 2.37 0 0 1-.37-1.34Zm.27 0a2.29 2.29 0 0 0 .32 1.2.94.94 0 0 0 .74.46.93.93 0 0 0 .74-.46 2.21 2.21 0 0 0 .33-1.2 2.15 2.15 0 0 0-.33-1.19.89.89 0 0 0-.74-.47.91.91 0 0 0-.74.47 2.23 2.23 0 0 0-.32 1.19ZM132.54 222a.13.13 0 0 1 .13-.13.13.13 0 0 1 .14.13v2.6l1.6-1.59a.12.12 0 0 1 .19 0 .13.13 0 0 1 0 .18l-1 1.05 1 1.27a.13.13 0 0 1 0 .19.16.16 0 0 1-.09 0 .1.1 0 0 1-.1 0l-1-1.25-.55.55v.62a.13.13 0 0 1-.14.13.13.13 0 0 1-.13-.13Z" style="fill:#a6a6a6"/><path d="M131.46 363.89h-1.08v3.64a.38.38 0 1 1-.75 0v-3.64h-1.08a.39.39 0 0 1-.38-.38.38.38 0 0 1 .38-.38h2.91a.38.38 0 0 1 .38.38.39.39 0 0 1-.38.38ZM134.31 364.86a.36.36 0 0 1-.36.36.63.63 0 0 0-.41.13 1 1 0 0 0-.32.33 2.38 2.38 0 0 0-.28.57v1.3a.37.37 0 0 1-.37.36.36.36 0 0 1-.36-.36v-2.69a.36.36 0 0 1 .36-.36.37.37 0 0 1 .37.36v.05a.66.66 0 0 1 .15-.14 1.52 1.52 0 0 1 .86-.27.36.36 0 0 1 .36.36ZM137.92 366.21v1.34a.36.36 0 0 1-.72.06 1.53 1.53 0 0 1-.91.3 1.59 1.59 0 0 1-1.16-.5 1.76 1.76 0 0 1-.46-1.2 1.74 1.74 0 0 1 .46-1.2 1.56 1.56 0 0 1 1.16-.51 1.53 1.53 0 0 1 .91.3.36.36 0 0 1 .72.07Zm-.73 0a1 1 0 0 0-.26-.7.84.84 0 0 0-.64-.28.79.79 0 0 0-.63.28 1 1 0 0 0-.26.7 1 1 0 0 0 .26.7.85.85 0 0 0 .63.27.91.91 0 0 0 .64-.27 1 1 0 0 0 .26-.7ZM139.09 366.93a.35.35 0 0 1 .51-.05 1.25 1.25 0 0 0 .75.3.9.9 0 0 0 .47-.13.29.29 0 0 0 .12-.21.11.11 0 0 0 0-.06l-.09-.09a1.88 1.88 0 0 0-.55-.19 2.63 2.63 0 0 1-.6-.17 1.28 1.28 0 0 1-.47-.4.86.86 0 0 1-.11-.43 1 1 0 0 1 .4-.75 1.49 1.49 0 0 1 .84-.25 1.75 1.75 0 0 1 1 .37.39.39 0 0 1 .11.51.35.35 0 0 1-.5.09 1.2 1.2 0 0 0-.63-.25.69.69 0 0 0-.41.12.21.21 0 0 0-.11.16.07.07 0 0 0 0 .05.14.14 0 0 0 .08.07 1.35 1.35 0 0 0 .5.17 2.58 2.58 0 0 1 .63.2 1.05 1.05 0 0 1 .49.4.93.93 0 0 1 .13.45 1 1 0 0 1-.43.8 1.56 1.56 0 0 1-.89.27 2 2 0 0 1-1.21-.47.37.37 0 0 1-.03-.51ZM145.45 365.92v1.63a.36.36 0 0 1-.35.36.37.37 0 0 1-.36-.36v-1.63a.7.7 0 0 0-.71-.69.68.68 0 0 0-.68.69v1.63a.07.07 0 0 1 0 .06.36.36 0 0 1-.72-.06v-2.69a.36.36 0 0 1 .36-.36.39.39 0 0 1 .34.21 1.32 1.32 0 0 1 .72-.21 1.43 1.43 0 0 1 1.4 1.42ZM146.63 366.93a.35.35 0 0 1 .51-.05 1.23 1.23 0 0 0 .75.3.89.89 0 0 0 .46-.13.28.28 0 0 0 .13-.21.11.11 0 0 0 0-.06l-.09-.09a1.88 1.88 0 0 0-.55-.19 2.7 2.7 0 0 1-.59-.17 1.2 1.2 0 0 1-.47-.4.86.86 0 0 1-.11-.43 1 1 0 0 1 .4-.75 1.49 1.49 0 0 1 .84-.25 1.75 1.75 0 0 1 1 .37.39.39 0 0 1 .11.51.37.37 0 0 1-.51.09 1.17 1.17 0 0 0-.62-.25.69.69 0 0 0-.41.12.21.21 0 0 0-.11.16.07.07 0 0 0 0 .05.14.14 0 0 0 .08.07 1.35 1.35 0 0 0 .49.17 2.72 2.72 0 0 1 .63.2 1.05 1.05 0 0 1 .49.4.93.93 0 0 1 .13.45 1 1 0 0 1-.43.8 1.59 1.59 0 0 1-.89.27 2 2 0 0 1-1.21-.47.37.37 0 0 1-.03-.51ZM153 366.21v1.34a.36.36 0 0 1-.71.06 1.53 1.53 0 0 1-.91.3 1.58 1.58 0 0 1-1.16-.5 1.76 1.76 0 0 1-.46-1.2 1.74 1.74 0 0 1 .46-1.2 1.55 1.55 0 0 1 1.16-.51 1.53 1.53 0 0 1 .91.3.36.36 0 0 1 .71.07Zm-.72 0a1 1 0 0 0-.27-.7.81.81 0 0 0-.63-.28.78.78 0 0 0-.63.28 1 1 0 0 0-.26.7 1 1 0 0 0 .26.7.84.84 0 0 0 .63.27.87.87 0 0 0 .63-.27 1 1 0 0 0 .3-.7ZM154.13 366.21a1.73 1.73 0 0 1 1.73-1.71 1.83 1.83 0 0 1 1.09.37.38.38 0 0 1 .07.51.37.37 0 0 1-.51.07 1.06 1.06 0 0 0-.65-.22 1 1 0 1 0 0 2 1.08 1.08 0 0 0 .65-.22.37.37 0 0 1 .51.07.38.38 0 0 1-.07.51 1.9 1.9 0 0 1-1.09.36 1.73 1.73 0 0 1-1.73-1.74ZM159.8 364.87a.39.39 0 0 1-.38.38h-.17v1.9a.38.38 0 0 1 0 .76.76.76 0 0 1-.76-.76v-1.9h-.2a.37.37 0 0 1-.37-.38.36.36 0 0 1 .37-.37h.2v-1a.38.38 0 0 1 .76 0v1h.17a.38.38 0 0 1 .38.37ZM161.74 363.65a.37.37 0 0 1-.37.37.38.38 0 0 1-.37-.37v-.15a.38.38 0 0 1 .37-.37.37.37 0 0 1 .37.37Zm0 1.23v2.66a.37.37 0 0 1-.37.37.38.38 0 0 1-.37-.37v-2.66a.37.37 0 0 1 .37-.38.37.37 0 0 1 .37.38ZM163.23 367.41a1.67 1.67 0 0 1-.47-1.2 1.71 1.71 0 0 1 .47-1.19 1.54 1.54 0 0 1 1.17-.52 1.48 1.48 0 0 1 1.14.52 1.68 1.68 0 0 1 .48 1.19 1.64 1.64 0 0 1-.48 1.2 1.51 1.51 0 0 1-1.14.52 1.58 1.58 0 0 1-1.17-.52Zm.27-1.2a1.13 1.13 0 0 0 .24.72.93.93 0 0 0 .66.26.88.88 0 0 0 .63-.26 1 1 0 0 0 .26-.72 1 1 0 0 0-.26-.71 1 1 0 0 0-.63-.26 1 1 0 0 0-.66.26 1.11 1.11 0 0 0-.24.71ZM170 365.92v1.63a.36.36 0 0 1-.35.36.38.38 0 0 1-.37-.36v-1.63a.69.69 0 0 0-.7-.69.68.68 0 0 0-.69.69v1.63a.13.13 0 0 1 0 .06.37.37 0 0 1-.36.3.36.36 0 0 1-.36-.36v-2.69a.35.35 0 0 1 .36-.36.36.36 0 0 1 .33.21 1.38 1.38 0 0 1 .73-.21 1.43 1.43 0 0 1 1.41 1.42ZM171.2 366.93a.35.35 0 0 1 .51-.05 1.21 1.21 0 0 0 .75.3.89.89 0 0 0 .46-.13.26.26 0 0 0 .12-.21s0 0 0-.06 0 0-.09-.09a1.8 1.8 0 0 0-.54-.19 2.7 2.7 0 0 1-.59-.17 1.14 1.14 0 0 1-.47-.4.77.77 0 0 1-.12-.43 1 1 0 0 1 .4-.75 1.51 1.51 0 0 1 .84-.25 1.78 1.78 0 0 1 1 .37.39.39 0 0 1 .11.51.37.37 0 0 1-.51.09 1.2 1.2 0 0 0-.63-.25.69.69 0 0 0-.41.12.22.22 0 0 0-.1.16.07.07 0 0 0 0 .05.15.15 0 0 0 .07.07 1.42 1.42 0 0 0 .5.17 2.72 2.72 0 0 1 .63.2 1 1 0 0 1 .48.4.84.84 0 0 1 .13.45 1 1 0 0 1-.43.8 1.53 1.53 0 0 1-.88.27 2 2 0 0 1-1.22-.47.36.36 0 0 1-.01-.51ZM132.36 382.28a.18.18 0 0 1 .17-.17h1.06a1.18 1.18 0 0 1 .73 2.12 1.36 1.36 0 0 1-.43 2.66h-1.37a.17.17 0 0 1-.16-.17Zm1.23 1.87a.85.85 0 1 0 0-1.7h-.89v1.7Zm.3 2.4a1 1 0 0 0 1-1 1 1 0 0 0-1-1h-1.19v2.06ZM139.14 383.71v3a.16.16 0 1 1-.32 0v-.49a1.59 1.59 0 0 1-1.26.66 1.67 1.67 0 0 1 0-3.34 1.58 1.58 0 0 1 1.26.65v-.49a.16.16 0 1 1 .32 0Zm-.32 1.51a1.26 1.26 0 1 0-1.26 1.34 1.31 1.31 0 0 0 1.26-1.34ZM142.88 384.91a1 1 0 0 0-1-1 1 1 0 0 0-1 1v1.84a.2.2 0 0 1 0 .08.13.13 0 0 1-.12.06.2.2 0 0 1-.11-.09v-3a.16.16 0 0 1 .16-.17.17.17 0 0 1 .16.17v.2a1.33 1.33 0 0 1 1-.49 1.37 1.37 0 0 1 1.36 1.36v1.81a.16.16 0 0 1-.16.17.17.17 0 0 1-.17-.17ZM144.68 382.28a.17.17 0 0 1 .16-.17.17.17 0 0 1 .17.17v3.21l2-2a.16.16 0 1 1 .23.23l-1.31 1.28 1.3 1.58a.17.17 0 0 1 0 .23.19.19 0 0 1-.11 0 .15.15 0 0 1-.13-.06l-1.29-1.55-.7.8v.76a.17.17 0 0 1-.17.17.17.17 0 0 1-.16-.17ZM150.55 385.27v-1.56a.16.16 0 0 1 .16-.16.17.17 0 0 1 .17.16v.48a1.6 1.6 0 0 1 1.27-.64 1.62 1.62 0 0 1 1.61 1.65 1.64 1.64 0 0 1-1.61 1.67 1.57 1.57 0 0 1-1.27-.66v1.91a.18.18 0 0 1-.17.17.17.17 0 0 1-.16-.17Zm.33-.07a1.28 1.28 0 1 0 2.55 0 1.28 1.28 0 1 0-2.55-.05ZM157.85 383.71v3a.17.17 0 0 1-.16.17.18.18 0 0 1-.17-.17v-.49a1.56 1.56 0 0 1-1.25.66 1.67 1.67 0 0 1 0-3.34 1.55 1.55 0 0 1 1.25.65v-.49a.16.16 0 0 1 .17-.16.15.15 0 0 1 .16.17Zm-.33 1.51a1.3 1.3 0 0 0-1.25-1.35 1.35 1.35 0 0 0 0 2.69 1.29 1.29 0 0 0 1.25-1.34ZM159.2 383.7a.16.16 0 0 1 .16-.15.16.16 0 0 1 .17.15v1.82a1 1 0 0 0 1 1 1 1 0 0 0 1-1v-1.82a.13.13 0 0 1 0-.08s0 0 .06 0h.16v.05a.19.19 0 0 1 0 .07v2.92a1.57 1.57 0 0 1-1.59 1.57 1.59 1.59 0 0 1-.69-.16.16.16 0 0 1-.07-.21.17.17 0 0 1 .21-.09 1.17 1.17 0 0 0 .55.13 1.26 1.26 0 0 0 1.26-1.24v-.22a1.36 1.36 0 0 1-2.39-.88ZM168.27 384.91a1 1 0 1 0-2.06 0v1.86a.18.18 0 0 1-.08.09h-.08v-1.82a1 1 0 1 0-2.06 0v1.82a.14.14 0 0 1-.07.13h-.07a.19.19 0 0 1-.14-.12v-3.06a.16.16 0 0 1 .16-.16.15.15 0 0 1 .16.16v.19a1.36 1.36 0 0 1 2.23.23 1.39 1.39 0 0 1 1.2-.71 1.36 1.36 0 0 1 1.36 1.36v1.82a.17.17 0 0 1-.17.16.16.16 0 0 1-.16-.16ZM169.74 385.22a1.62 1.62 0 0 1 3.24-.12.16.16 0 0 1-.17.15h-2.74a1.31 1.31 0 0 0 1.3 1.28 1.23 1.23 0 0 0 1.07-.61.16.16 0 0 1 .22-.05.18.18 0 0 1 .06.23 1.6 1.6 0 0 1-1.35.76 1.65 1.65 0 0 1-1.63-1.64Zm.35-.26h2.53a1.29 1.29 0 0 0-1.25-1.09 1.31 1.31 0 0 0-1.28 1.13ZM176.52 384.91a1 1 0 0 0-1-1 1 1 0 0 0-1 1v1.84a.2.2 0 0 1 0 .08.14.14 0 0 1-.12.06.2.2 0 0 1-.11-.09v-3a.16.16 0 0 1 .16-.17.17.17 0 0 1 .16.17v.2a1.33 1.33 0 0 1 1-.49 1.37 1.37 0 0 1 1.36 1.36v1.81a.17.17 0 0 1-.16.17.17.17 0 0 1-.17-.17ZM179.48 383.71a.17.17 0 0 1-.16.16h-.43v2.44a.26.26 0 0 0 .25.24.19.19 0 0 1 .17.17.18.18 0 0 1-.17.17.57.57 0 0 1-.59-.58v-2.44h-.42c-.16 0-.16-.08-.16-.16s0-.16.16-.16h.42v-1.25a.17.17 0 0 1 .16-.16.18.18 0 0 1 .18.16v1.25h.43a.17.17 0 0 1 .16.16Z" style="fill:#263238"/><path d="M236.56 367a.16.16 0 0 1 .21 0 2.63 2.63 0 0 0 1.57.62 1.82 1.82 0 0 0 1-.32.89.89 0 0 0 .41-.71.76.76 0 0 0-.39-.65 3.17 3.17 0 0 0-1.11-.39 3 3 0 0 1-1.13-.4 1 1 0 0 1-.49-.83 1.12 1.12 0 0 1 .5-.9 1.93 1.93 0 0 1 1.15-.34 2.63 2.63 0 0 1 1.48.55.15.15 0 1 1-.17.25 2.32 2.32 0 0 0-1.31-.51 1.71 1.71 0 0 0-1 .29.84.84 0 0 0-.38.66.71.71 0 0 0 .36.58 2.81 2.81 0 0 0 1 .36 3.3 3.3 0 0 1 1.22.43 1.09 1.09 0 0 1 .52.9 1.17 1.17 0 0 1-.54 1 2.1 2.1 0 0 1-1.22.37 2.94 2.94 0 0 1-1.76-.68.17.17 0 0 1 .08-.28ZM241 366.24a1.65 1.65 0 0 1 1.63-1.67 1.63 1.63 0 0 1 1.6 1.55.15.15 0 0 1-.16.15h-2.74a1.31 1.31 0 0 0 1.3 1.28 1.23 1.23 0 0 0 1.07-.61.16.16 0 0 1 .22-.05.18.18 0 0 1 .06.23 1.6 1.6 0 0 1-1.35.76 1.65 1.65 0 0 1-1.63-1.64Zm.35-.26h2.53a1.29 1.29 0 0 0-1.25-1.09 1.31 1.31 0 0 0-1.27 1.11ZM245.17 366.24a1.62 1.62 0 0 1 3.23-.12.16.16 0 0 1-.16.15h-2.75a1.32 1.32 0 0 0 1.3 1.28 1.26 1.26 0 0 0 1.08-.61.16.16 0 0 1 .22-.05.17.17 0 0 1 0 .23 1.59 1.59 0 0 1-1.35.76 1.64 1.64 0 0 1-1.57-1.64Zm.35-.26h2.53a1.28 1.28 0 0 0-2.53 0ZM254.41 364.73v3a.17.17 0 0 1-.16.17.18.18 0 0 1-.17-.17v-.49a1.56 1.56 0 0 1-1.25.66 1.67 1.67 0 0 1 0-3.34 1.52 1.52 0 0 1 1.25.65v-.49a.16.16 0 0 1 .17-.16.15.15 0 0 1 .16.17Zm-.33 1.51a1.3 1.3 0 0 0-1.25-1.35 1.35 1.35 0 0 0 0 2.69 1.29 1.29 0 0 0 1.25-1.34ZM256 363.3a.17.17 0 1 1 .34 0v4.44a.17.17 0 0 1-.34 0ZM257.67 363.3a.17.17 0 1 1 .34 0v4.44a.17.17 0 1 1-.34 0Z" style="fill:#a6a6a6"/><path d="M240.31 383.6a.12.12 0 0 1 .13-.12h1.45a.12.12 0 0 1 .13.12.13.13 0 0 1-.13.14h-1.45a.13.13 0 0 1-.13-.14ZM244.83 380.78a.17.17 0 0 1 .17.16v.27a2.24 2.24 0 0 1 1.21.48c.06.05.1.09.1.16a.18.18 0 0 1-.18.17.16.16 0 0 1-.12 0 1.91 1.91 0 0 0-1-.44v1.91c1 .21 1.48.6 1.48 1.27A1.34 1.34 0 0 1 245 386v.54a.17.17 0 0 1-.17.16.16.16 0 0 1-.16-.16V386a2.59 2.59 0 0 1-1.53-.66.19.19 0 0 1-.08-.15.18.18 0 0 1 .17-.17.17.17 0 0 1 .12.05 2.23 2.23 0 0 0 1.33.62v-1.94c-1-.23-1.44-.6-1.44-1.29a1.33 1.33 0 0 1 1.43-1.23v-.26a.16.16 0 0 1 .16-.19Zm-.15 2.59v-1.86a1 1 0 0 0-1.09.9c0 .46.21.75 1.09.96Zm.3.41v1.89c.69 0 1.13-.41 1.13-.93s-.24-.74-1.11-.96ZM248.11 381.68l-.68.4a.19.19 0 0 1-.08 0 .17.17 0 0 1-.14-.09.15.15 0 0 1 .06-.22l.92-.56a.19.19 0 0 1 .23.06.25.25 0 0 1 0 .12v4.39a.16.16 0 0 1-.17.16.16.16 0 0 1-.16-.16ZM249.61 385.68l2.23-2a1.23 1.23 0 0 0 .41-.92 1.24 1.24 0 0 0-1.23-1.22 1.25 1.25 0 0 0-.83.32l-.23.21a.17.17 0 0 1-.23-.24l.23-.22a1.65 1.65 0 0 1 1.06-.4 1.57 1.57 0 0 1 1.56 1.55 1.53 1.53 0 0 1-.52 1.16l-1.9 1.73h2.25a.18.18 0 0 1 .17.17.17.17 0 0 1-.17.16h-2.68a.16.16 0 0 1-.12-.29ZM255.29 381.2a1.57 1.57 0 0 1 1.57 1.39s0 .26 0 .4a4 4 0 0 1-.46 1.91 2 2 0 0 1-1.67 1 .16.16 0 0 1-.17-.15.18.18 0 0 1 .17-.18 1.62 1.62 0 0 0 1.39-.87 3 3 0 0 0 .34-.95 1.59 1.59 0 0 1-2.76-1.05 1.57 1.57 0 0 1 1.59-1.5Zm1.25 1.57a1.25 1.25 0 1 0-1.25 1.24 1.24 1.24 0 0 0 1.25-1.24Z" style="fill:#263238"/><path d="M259.75 388.41H236.4v-10.05h23.35Zm-23.1-.25h22.85v-9.55h-22.85ZM132.36 400.56a.17.17 0 0 1 .17-.16h1.35a1.36 1.36 0 0 1 0 2.72h-1.18V405a.17.17 0 0 1-.34 0Zm1.52 2.24a1.05 1.05 0 0 0 1-1 1 1 0 0 0-1-1h-1.18v2.07ZM139.07 402v3a.16.16 0 0 1-.16.16.17.17 0 0 1-.17-.16v-.5a1.56 1.56 0 0 1-1.25.66 1.67 1.67 0 0 1 0-3.34 1.55 1.55 0 0 1 1.25.65V402a.17.17 0 0 1 .17-.16.16.16 0 0 1 .16.16Zm-.33 1.51a1.3 1.3 0 0 0-1.25-1.35 1.35 1.35 0 0 0 0 2.69 1.29 1.29 0 0 0 1.25-1.35ZM141.66 402a.19.19 0 0 1-.17.17h-.43v2.43a.27.27 0 0 0 .25.25.19.19 0 0 1 .17.17.18.18 0 0 1-.17.16.56.56 0 0 1-.59-.58v-2.43h-.41c-.17 0-.17-.09-.17-.17s0-.16.17-.16h.41v-1.24a.18.18 0 0 1 .16-.17.19.19 0 0 1 .18.17v1.24h.43a.18.18 0 0 1 .17.16ZM142.74 402a.16.16 0 0 1 .17-.16.16.16 0 0 1 .16.16v.74a.41.41 0 0 1 .05-.09 1.6 1.6 0 0 1 1.33-.81.16.16 0 0 1 .17.16.17.17 0 0 1-.17.16 1.23 1.23 0 0 0-1 .55 3.17 3.17 0 0 0-.4.78.11.11 0 0 0 0 .05V405a.16.16 0 0 1-.16.16.17.17 0 0 1-.17-.16ZM145.74 400.9a.17.17 0 0 1 .34 0v.16a.17.17 0 0 1-.34 0Zm0 1.09a.17.17 0 0 1 .34 0v3a.17.17 0 0 1-.34 0ZM147.41 403.49a1.72 1.72 0 0 1 2.79-1.29.15.15 0 0 1 0 .22.18.18 0 0 1-.23 0 1.38 1.38 0 0 0-.86-.3 1.35 1.35 0 1 0 0 2.69 1.44 1.44 0 0 0 .86-.29.18.18 0 0 1 .23 0 .16.16 0 0 1 0 .24 1.76 1.76 0 0 1-1.05.35 1.69 1.69 0 0 1-1.74-1.62ZM151.55 400.56a.16.16 0 0 1 .16-.16.16.16 0 0 1 .17.16v3.21l2-2a.16.16 0 1 1 .23.23l-1.29 1.29 1.3 1.58a.18.18 0 0 1 0 .24h-.11s-.11 0-.13-.06l-1.29-1.55-.68.68v.82a.16.16 0 0 1-.17.16.16.16 0 0 1-.16-.16ZM155.19 401.5a.5.5 0 0 0 .32-.52.24.24 0 0 1-.18-.24v-.15a.22.22 0 0 1 .22-.22.22.22 0 0 1 .23.22v.17c0 .39-.06.59-.19.71a.71.71 0 0 1-.35.22.09.09 0 0 1-.1-.1.12.12 0 0 1 .05-.09ZM156.5 404.48a.16.16 0 0 1 .23 0 1.79 1.79 0 0 0 1 .39 1 1 0 0 0 .63-.2.52.52 0 0 0 .25-.41.5.5 0 0 0-.24-.41 1.69 1.69 0 0 0-.71-.25 2.12 2.12 0 0 1-.76-.26.69.69 0 0 1-.36-.6.84.84 0 0 1 .36-.66 1.5 1.5 0 0 1 .82-.22 1.84 1.84 0 0 1 1 .36.19.19 0 0 1 0 .23.16.16 0 0 1-.23.05 1.49 1.49 0 0 0-.82-.33 1 1 0 0 0-.63.19.48.48 0 0 0-.21.38.4.4 0 0 0 .19.33 1.46 1.46 0 0 0 .68.23 2.48 2.48 0 0 1 .82.28.84.84 0 0 1 .37.68.85.85 0 0 1-.38.67 1.37 1.37 0 0 1-.83.27 2 2 0 0 1-1.24-.48.15.15 0 0 1 .06-.24ZM162.39 405.17a.16.16 0 0 1-.15-.16v-4.45a.16.16 0 0 1 .16-.16h.9a2.39 2.39 0 0 1 0 4.77Zm.88-.33a2.06 2.06 0 0 0 0-4.11h-.72v4.11ZM166.8 403.51a1.62 1.62 0 0 1 3.24-.13.16.16 0 0 1-.17.15h-2.74a1.31 1.31 0 0 0 1.3 1.28 1.25 1.25 0 0 0 1.07-.6.16.16 0 0 1 .22-.06.18.18 0 0 1 .06.23 1.6 1.6 0 0 1-1.35.76 1.64 1.64 0 0 1-1.63-1.63Zm.35-.27h2.53a1.28 1.28 0 0 0-1.25-1.08 1.31 1.31 0 0 0-1.28 1.08ZM171.2 403.55V402a.16.16 0 0 1 .16-.16.17.17 0 0 1 .17.16v.49a1.59 1.59 0 0 1 1.27-.65 1.66 1.66 0 0 1 0 3.32 1.59 1.59 0 0 1-1.27-.65v1.9a.18.18 0 0 1-.17.17.17.17 0 0 1-.16-.17Zm.33-.06a1.28 1.28 0 1 0 1.27-1.33 1.3 1.3 0 0 0-1.27 1.27ZM177.12 401.83a1.67 1.67 0 1 1-1.58 1.67 1.64 1.64 0 0 1 1.58-1.67Zm0 3a1.35 1.35 0 1 0-1.25-1.34 1.31 1.31 0 0 0 1.25 1.35ZM179.73 404.48a.16.16 0 0 1 .23 0 1.79 1.79 0 0 0 1 .39 1 1 0 0 0 .64-.2.52.52 0 0 0 .25-.41.53.53 0 0 0-.24-.41 1.69 1.69 0 0 0-.71-.25 2.12 2.12 0 0 1-.76-.26.69.69 0 0 1-.36-.6.84.84 0 0 1 .36-.66 1.5 1.5 0 0 1 .82-.22 1.84 1.84 0 0 1 1 .36.19.19 0 0 1 .05.23.17.17 0 0 1-.23.05 1.49 1.49 0 0 0-.82-.33 1 1 0 0 0-.63.19.48.48 0 0 0-.21.38.4.4 0 0 0 .19.33 1.46 1.46 0 0 0 .68.23 2.35 2.35 0 0 1 .81.28.83.83 0 0 1 .38.68.85.85 0 0 1-.38.67 1.38 1.38 0 0 1-.84.27 2 2 0 0 1-1.23-.48.15.15 0 0 1 0-.24ZM183.33 400.9a.16.16 0 0 1 .16-.16.17.17 0 0 1 .17.16v.16a.18.18 0 0 1-.17.17.17.17 0 0 1-.16-.17Zm0 1.09a.16.16 0 0 1 .16-.16.17.17 0 0 1 .17.16v3a.17.17 0 0 1-.17.16.16.16 0 0 1-.16-.16ZM186.4 402a.18.18 0 0 1-.16.17h-.43v2.43a.27.27 0 0 0 .24.25.18.18 0 0 1 .17.17.17.17 0 0 1-.17.16.56.56 0 0 1-.58-.58v-2.43h-.42c-.16 0-.16-.09-.16-.17s0-.16.16-.16h.42v-1.24a.18.18 0 0 1 .16-.17.19.19 0 0 1 .18.17v1.24h.43a.17.17 0 0 1 .16.16ZM237.21 402.09H236a.22.22 0 0 1-.23-.22.23.23 0 0 1 .23-.23h1.25v-1.25a.22.22 0 0 1 .22-.23.23.23 0 0 1 .23.23v1.25h1.25a.23.23 0 0 1 .23.23.22.22 0 0 1-.23.22h-1.25v1.25a.23.23 0 0 1-.23.23.22.22 0 0 1-.22-.23ZM241.71 399.06a.16.16 0 0 1 .16.16v.28a2.26 2.26 0 0 1 1.22.47.19.19 0 0 1 .09.16.17.17 0 0 1-.17.17.18.18 0 0 1-.13-.05 2 2 0 0 0-1-.44v1.91c1 .22 1.47.61 1.47 1.27a1.34 1.34 0 0 1-1.46 1.27v.53a.16.16 0 0 1-.32 0v-.54a2.61 2.61 0 0 1-1.54-.66.17.17 0 0 1-.07-.15.18.18 0 0 1 .17-.17.17.17 0 0 1 .12.05 2.15 2.15 0 0 0 1.33.62V402c-1-.23-1.45-.6-1.45-1.28a1.33 1.33 0 0 1 1.44-1.24v-.26a.16.16 0 0 1 .14-.16Zm-.15 2.59v-1.86a1 1 0 0 0-1.1.9c0 .46.22.75 1.1.96Zm.3.42V404c.68 0 1.12-.41 1.12-.93s-.23-.8-1.12-1ZM244.31 403.79a.16.16 0 0 1 0-.24.18.18 0 0 1 .25 0 1.3 1.3 0 0 0 .9.37 1.26 1.26 0 0 0 .89-.38 1.23 1.23 0 0 0 .38-.9 1.27 1.27 0 0 0-2.17-.9.16.16 0 0 1-.24 0v-.05a.13.13 0 0 1 0-.06l.23-1.92a.16.16 0 0 1 .07-.13.21.21 0 0 1 .11 0h2.22a.17.17 0 0 1 .17.17.16.16 0 0 1-.17.17h-2.08l-.17 1.42a1.67 1.67 0 0 1 .81-.22 1.56 1.56 0 0 1 1.14.47 1.6 1.6 0 0 1 .47 1.15 1.62 1.62 0 0 1-.47 1.15 1.68 1.68 0 0 1-1.14.47 1.63 1.63 0 0 1-1.2-.57ZM248.4 401.87a3.06 3.06 0 0 1 .46-1.67 1.47 1.47 0 0 1 1.19-.72 1.49 1.49 0 0 1 1.2.72 3.15 3.15 0 0 1 .46 1.67 3.09 3.09 0 0 1-.46 1.66 1.5 1.5 0 0 1-1.2.73 1.48 1.48 0 0 1-1.19-.73 3 3 0 0 1-.46-1.66Zm.34 0a2.67 2.67 0 0 0 .4 1.48 1.13 1.13 0 0 0 .91.57 1.18 1.18 0 0 0 .92-.57 2.88 2.88 0 0 0 0-3 1.13 1.13 0 0 0-.92-.57 1.09 1.09 0 0 0-.91.57 2.67 2.67 0 0 0-.4 1.52ZM253.25 401.87a3.06 3.06 0 0 1 .45-1.67 1.49 1.49 0 0 1 1.2-.72 1.47 1.47 0 0 1 1.19.72 3.06 3.06 0 0 1 .46 1.67 3 3 0 0 1-.46 1.66 1.48 1.48 0 0 1-1.19.73 1.5 1.5 0 0 1-1.2-.73 3 3 0 0 1-.45-1.66Zm.33 0a2.75 2.75 0 0 0 .4 1.48 1.16 1.16 0 0 0 .92.57 1.15 1.15 0 0 0 .91-.57 2.88 2.88 0 0 0 0-3 1.1 1.1 0 0 0-.91-.57 1.12 1.12 0 0 0-.92.57 2.75 2.75 0 0 0-.4 1.52Z" style="fill:#263238"/><path d="M259.75 406.69H233v-10.05h26.74Zm-26.49-.25h26.24v-9.55h-26.24ZM134.64 418.61a2.56 2.56 0 0 1 1.54.53.15.15 0 0 1 0 .23.16.16 0 0 1-.23 0 2.15 2.15 0 0 0-1.33-.47 2.09 2.09 0 1 0 0 4.18 2 2 0 0 0 1.32-.47.17.17 0 0 1 .24.05.15.15 0 0 1 0 .23 2.55 2.55 0 0 1-1.54.52 2.42 2.42 0 1 1 0-4.84ZM137.24 421.79a1.62 1.62 0 0 1 3.24-.12.16.16 0 0 1-.17.15h-2.74a1.32 1.32 0 0 0 1.3 1.29 1.26 1.26 0 0 0 1.07-.61.17.17 0 0 1 .22-.06.19.19 0 0 1 .06.24 1.61 1.61 0 0 1-1.35.75 1.65 1.65 0 0 1-1.63-1.64Zm.35-.27h2.53a1.29 1.29 0 0 0-1.25-1.08 1.31 1.31 0 0 0-1.28 1.08ZM141.68 418.84a.17.17 0 0 1 .34 0v4.45a.17.17 0 0 1-.34 0ZM143.38 418.84a.17.17 0 0 1 .34 0v4.45a.17.17 0 0 1-.34 0ZM145 421.84v-1.57a.17.17 0 0 1 .34 0v.49a1.57 1.57 0 0 1 1.27-.65 1.66 1.66 0 0 1 0 3.32 1.57 1.57 0 0 1-1.27-.65v1.91a.17.17 0 0 1-.34 0Zm.34-.07a1.28 1.28 0 1 0 1.27-1.33 1.29 1.29 0 0 0-1.27 1.27ZM152 421.43a1.06 1.06 0 0 0-2.12 0v1.91a.22.22 0 0 1-.1.09h-.05a.19.19 0 0 1-.13-.05v-4.56a.16.16 0 0 1 .16-.16.17.17 0 0 1 .17.16v1.76a1.37 1.37 0 0 1 1.06-.49 1.33 1.33 0 0 1 1.39 1.32v1.86a.16.16 0 0 1-.17.16.16.16 0 0 1-.16-.16ZM155.14 420.11a1.67 1.67 0 1 1-1.58 1.67 1.64 1.64 0 0 1 1.58-1.67Zm0 3a1.35 1.35 0 1 0-1.25-1.35 1.32 1.32 0 0 0 1.25 1.37ZM160.37 421.48a1 1 0 0 0-1-1 1.06 1.06 0 0 0-1 1v1.84a.11.11 0 0 1 0 .07.16.16 0 0 1-.13.06.23.23 0 0 1-.11-.09v-3.05a.16.16 0 0 1 .32 0v.32a1.36 1.36 0 0 1 2.4.88v1.81a.17.17 0 0 1-.17.16.16.16 0 0 1-.16-.16ZM161.92 421.79a1.62 1.62 0 0 1 3.24-.12.16.16 0 0 1-.17.15h-2.74a1.33 1.33 0 0 0 1.3 1.29 1.29 1.29 0 0 0 1.08-.61.15.15 0 0 1 .21-.06.18.18 0 0 1 .06.24 1.61 1.61 0 0 1-1.35.75 1.65 1.65 0 0 1-1.63-1.64Zm.35-.27h2.53a1.29 1.29 0 0 0-1.25-1.08 1.31 1.31 0 0 0-1.28 1.08ZM168.44 418.84a.16.16 0 0 1 .16-.16h1.07a1.19 1.19 0 0 1 .73 2.12 1.36 1.36 0 0 1-.43 2.65h-1.37a.16.16 0 0 1-.16-.16Zm1.23 1.88a.86.86 0 0 0 0-1.71h-.9v1.71Zm.3 2.4a1 1 0 1 0 0-2.06h-1.2v2.06ZM172.15 419.18a.16.16 0 0 1 .16-.16.17.17 0 0 1 .18.16v.16a.18.18 0 0 1-.18.18.18.18 0 0 1-.16-.18Zm0 1.09a.16.16 0 0 1 .16-.16.17.17 0 0 1 .18.16v3a.17.17 0 0 1-.18.16.16.16 0 0 1-.16-.16ZM174 418.84a.16.16 0 0 1 .16-.16.16.16 0 0 1 .17.16v4.45a.16.16 0 0 1-.17.16.16.16 0 0 1-.16-.16ZM175.66 418.84a.17.17 0 0 1 .34 0v4.45a.17.17 0 0 1-.34 0ZM242.36 420.16a.12.12 0 0 1 .13-.12h1.45a.12.12 0 0 1 .13.12.13.13 0 0 1-.13.14h-1.45a.12.12 0 0 1-.13-.14ZM246.88 417.34a.17.17 0 0 1 .16.17v.27a2.16 2.16 0 0 1 1.22.48.16.16 0 0 1 .09.15.17.17 0 0 1-.17.17.16.16 0 0 1-.13-.05 2 2 0 0 0-1-.44V420c1 .22 1.47.61 1.47 1.28a1.34 1.34 0 0 1-1.46 1.26v.53a.16.16 0 1 1-.32 0v-.54a2.55 2.55 0 0 1-1.54-.66.16.16 0 0 1-.07-.14.18.18 0 0 1 .17-.17.17.17 0 0 1 .12 0 2.22 2.22 0 0 0 1.33.63v-2c-1-.22-1.45-.6-1.45-1.28a1.34 1.34 0 0 1 1.44-1.24v-.25a.17.17 0 0 1 .14-.08Zm-.15 2.59v-1.86a1 1 0 0 0-1.1.9c0 .47.22.75 1.1.96Zm.3.42v1.88c.68 0 1.13-.41 1.13-.93s-.24-.75-1.16-.95ZM250.93 417.76a1 1 0 0 1 .58 1.8 1.54 1.54 0 1 1-1.18 0 1 1 0 0 1-.39-.81 1 1 0 0 1 .99-.99Zm0 4.45a1.22 1.22 0 1 0-1.22-1.22 1.21 1.21 0 0 0 1.22 1.22Zm0-2.78a.69.69 0 0 0 .67-.68.67.67 0 0 0-.67-.66.66.66 0 0 0-.66.66.68.68 0 0 0 .66.68ZM255.29 417.76a1.57 1.57 0 0 1 1.57 1.4v.41a4 4 0 0 1-.46 1.9 2 2 0 0 1-1.67 1 .17.17 0 0 1-.17-.16.18.18 0 0 1 .17-.18 1.59 1.59 0 0 0 1.39-.86 3.14 3.14 0 0 0 .34-1 1.58 1.58 0 1 1-1.19-2.62Zm1.25 1.57a1.25 1.25 0 1 0-1.25 1.24 1.23 1.23 0 0 0 1.25-1.24Z" style="fill:#263238"/><path d="M259.75 425H236.4v-10.08h23.35Zm-23.1-.25h22.85v-9.56h-22.85Z" style="fill:#263238"/><path d="M196 335a3 3 0 1 1-3-3 3 3 0 0 1 3 3Z" style="fill:#ebebeb"/><circle cx="181.45" cy="334.97" r="1.75" style="fill:#ebebeb"/><circle cx="204.04" cy="334.97" r="1.75" style="fill:#ebebeb"/><path d="M120.4 364.18c-13.26 18-27.09 38.81-30.46 61.34a.3.3 0 0 0 .59.11 133.16 133.16 0 0 1 5.86-18c8.72-2.4 17.28-4.38 21.86-13 4.67-8.9 4.08-20.5 3.19-30.19-.06-.58-.77-.6-1.04-.26Z" style="fill:#00b3ff"/><path d="M96.52 407.43c6-13.37 13.61-26.8 23.33-37.8.07-.07.17 0 .11.11-6.36 7.83-11.2 16.36-15.93 25 4.4-4.46 9.21-8.45 13.37-13.18.08-.09.21 0 .13.13-4.13 5-8.64 10.34-14 14-1.45 2.67-2.9 5.34-4.38 8 .37-.21.74-.39 1.11-.57.07 0 .12.07.06.1-.41.21-.82.43-1.24.61-.7 1.26-1.39 2.52-2.11 3.78-.18.39-.57.1-.45-.18ZM101 402.76a78.78 78.78 0 0 0 10.18-6.8c.08-.07.21.05.12.13a53.59 53.59 0 0 1-10.2 6.91c-.16.1-.31-.15-.1-.24Z" style="fill:#263238"/><path d="M88.41 422.17c0 .27.49.27.48 0 .07-7.42 0-14.87.12-22.33 1.9-3.83 6-5.95 8.82-9a40.19 40.19 0 0 0 5.29-7.36 53.09 53.09 0 0 0 6.14-20.48c.78-7.93-2.23-34.12-5.58-33.21-1.73.47-7.35 13.44-8.83 17.73a122.87 122.87 0 0 0-5.28 21.74c-2.72 17.42-2.49 35.34-1.16 52.91Z" style="fill:#00b3ff"/><path d="M88.35 390.17c.4-9.39 2.52-18.87 4.5-28 2.13-9.81 4.62-19 9.67-27.79a.14.14 0 0 1 .25.14A103.56 103.56 0 0 0 95 355.86c.34-.53.75-1 1.1-1.53.14-.2.46 0 .33.19a13.51 13.51 0 0 1-1.58 2.22h-.06c-1.74 7-3 14.18-4.06 21.34l.24-.28c.06-.06.15 0 .11.09-.13.23-.28.47-.43.7-.53 3.63-1 7.26-1.53 10.85 6.46-5.53 12-12 15.1-20.06h.06c-3 8.33-7.86 15.73-15.26 20.78-.14 1-.28 1.93-.41 2.9 0 .2-.35.14-.35-.05 0-.86 0-1.71.08-2.57a.2.2 0 0 1 .01-.27Z" style="fill:#263238"/><path d="M91.4 376.57c4.94-7.38 9.55-14.54 13.17-22.69 0-.09.2 0 .16.07-3 8.1-7.31 16.3-13.08 22.81-.12.13-.35-.04-.25-.19ZM98 352.06c2.05-3.62 4.21-7.14 6.14-10.83.05-.11.19 0 .15.09a56.8 56.8 0 0 1-6 10.93.19.19 0 0 1-.29-.19ZM97.17 353.64v.06-.06Z" style="fill:#263238"/><path d="M83.39 400.72a75.45 75.45 0 0 1-1.74 14.61c.08.53.16 1.06.23 1.6a69.84 69.84 0 0 0 2.62-16.29.49.49 0 0 0 0-.5 107.57 107.57 0 0 0-1.64-22.07c-2.3-13.64-7.31-26.72-16.82-36.94a.68.68 0 0 0-1 .22c-3.84 9.75-2.5 21.39.77 31.13a56.83 56.83 0 0 0 7.54 14.78c3.23 4.57 7.39 8.45 10.04 13.46Z" style="fill:#00b3ff"/><path d="M67.18 345.68c9 14.62 15.28 32 16 49.24 0 .3-.5.38-.55.07-.21-1.55-.45-3.09-.69-4.62-3.73-3.57-7.55-7.34-10.22-11.8 0-.08.06-.17.12-.1 3.25 3.71 6.27 7.51 9.94 10.81-.65-3.82-1.41-7.58-2.32-11.28l-.71-.84c-.16-.18.1-.45.26-.27l.22.24a130.24 130.24 0 0 0-4.71-14.95c-2.29-2.74-4.86-5.11-6.53-8.4a.07.07 0 0 1 .12-.07c1.34 1.88 2.64 3.78 4.17 5.53.6.7 1.27 1.35 1.9 2a113.89 113.89 0 0 0-7.38-15.38.2.2 0 0 1 .38-.18Z" style="fill:#263238"/><path d="M69 363.72c2.92 3.92 6.24 7.66 8.94 11.71.08.11-.09.23-.19.14-3.47-3.26-6.42-7.72-8.94-11.74-.08-.13.11-.23.19-.11ZM78.35 376.34l.12.12a.09.09 0 1 1-.13.13l-.12-.12a.09.09 0 1 1 .13-.13Z" style="fill:#263238"/><path d="M53.06 373.79c.73 7.52 4.69 16.51 9.51 22.31a23.81 23.81 0 0 0 7.71 6c3.34 1.65 6.84 3.55 10.29 4.91A67 67 0 0 1 84.22 420l.33-1.14C82.33 399.78 70 383.49 54.24 373a.77.77 0 0 0-1.18.79Z" style="fill:#00b3ff"/><path d="M58.51 379.42c-.11-.1 0-.3.16-.21A64.45 64.45 0 0 1 78.76 404c.12.26-.24.49-.39.23q-1.09-1.92-2.24-3.76c-3.6-.68-7-3.21-9.68-5.61-.07-.07 0-.17.11-.11a22.21 22.21 0 0 0 4.55 3.2c1.47.74 3.05 1.21 4.58 1.81-1.34-2.12-2.73-4.15-4.18-6.12a41.92 41.92 0 0 1-10.82-6.08.1.1 0 0 1 .11-.17 106.72 106.72 0 0 0 10.05 5.37 90.69 90.69 0 0 0-7.1-8.27c-1.22-.65-2.46-1.3-3.65-2-.09-.05 0-.22.08-.18a13.18 13.18 0 0 1 2.8 1.37 82.29 82.29 0 0 0-4.47-4.26ZM58.85 386a4.12 4.12 0 0 1 .6.43c.06.05 0 .12-.07.1a4.53 4.53 0 0 1-.64-.36c-.1-.07 0-.24.11-.17Z" style="fill:#263238"/><path d="M109.16 461.23H65.95l3.49-39.35.77-8.68h34.7l.76 8.68 3.49 39.35z" style="fill:#455a64"/><path d="M105.67 421.88H69.44l.77-8.68h34.7l.76 8.68z" style="fill:#263238"/><path d="M68.14 407.13h38.83v8.59H68.14z" style="fill:#455a64"/><path d="M273.7 255.94h77.58v17.14H273.7z" style="fill:#00b3ff" transform="rotate(180 312.49 264.51)"/><g style="opacity:.1"><path d="M348.08 271.51a46 46 0 0 1 0-13.71 45.66 45.66 0 0 1 0 13.71ZM342.3 271.51a46 46 0 0 1 0-13.71 45.66 45.66 0 0 1 0 13.71ZM339.48 271.51a46 46 0 0 1 0-13.71 45.66 45.66 0 0 1 0 13.71ZM324 271.51a45.66 45.66 0 0 1 0-13.71 46 46 0 0 1 0 13.71ZM319.8 271.51a45.66 45.66 0 0 1 0-13.71 45.66 45.66 0 0 1 0 13.71ZM302.46 271.51a46 46 0 0 1 0-13.71 45.66 45.66 0 0 1 0 13.71ZM298.46 271.51a45.66 45.66 0 0 1 0-13.71 46 46 0 0 1 0 13.71ZM291.1 271.51a46 46 0 0 1 0-13.71 45.34 45.34 0 0 1 0 13.71ZM305.81 271.51a46 46 0 0 1 0-13.71 45.66 45.66 0 0 1 0 13.71ZM334.36 271.51a46 46 0 0 1 0-13.71 46 46 0 0 1 0 13.71ZM314.28 271.51a46 46 0 0 1 0-13.71 45.66 45.66 0 0 1 0 13.71ZM311.39 271.51a46 46 0 0 1 0-13.71 45.66 45.66 0 0 1 0 13.71ZM281.52 271.51a45.66 45.66 0 0 1 0-13.71 46 46 0 0 1 0 13.71ZM277.19 271.51a45.66 45.66 0 0 1 0-13.71 46 46 0 0 1 0 13.71ZM287.69 271.51a46 46 0 0 1 0-13.71 45.66 45.66 0 0 1 0 13.71ZM327.34 271.51a45.34 45.34 0 0 1 0-13.71 46 46 0 0 1 0 13.71Z"/></g><path d="M273.7 273.08v-3.64l77.58-2.45v6.09H273.7z" style="opacity:.1"/><path d="M279 273.08h77.58v17.14H279z" style="fill:#00b3ff" transform="rotate(180 317.795 281.655)"/><g style="opacity:.1"><path d="M353.39 288.65a45.66 45.66 0 0 1 0-13.71 46 46 0 0 1 0 13.71ZM347.61 288.65a45.66 45.66 0 0 1 0-13.71 46 46 0 0 1 0 13.71ZM344.79 288.65a45.66 45.66 0 0 1 0-13.71 46 46 0 0 1 0 13.71ZM329.29 288.65a46 46 0 0 1 0-13.71 45.66 45.66 0 0 1 0 13.71ZM325.1 288.65a46 46 0 0 1 0-13.71 45.66 45.66 0 0 1 0 13.71ZM307.77 288.65a45.66 45.66 0 0 1 0-13.71 46 46 0 0 1 0 13.71ZM303.76 288.65a46 46 0 0 1 0-13.71 45.66 45.66 0 0 1 0 13.71ZM296.41 288.65a46 46 0 0 1 0-13.71 45.66 45.66 0 0 1 0 13.71ZM311.12 288.65a45.66 45.66 0 0 1 0-13.71 46 46 0 0 1 0 13.71ZM339.67 288.65a45.66 45.66 0 0 1 0-13.71 46 46 0 0 1 0 13.71ZM319.59 288.65a45.66 45.66 0 0 1 0-13.71 46 46 0 0 1 0 13.71ZM316.7 288.65a45.66 45.66 0 0 1 0-13.71 46 46 0 0 1 0 13.71ZM286.83 288.65a45.66 45.66 0 0 1 0-13.71 46 46 0 0 1 0 13.71ZM282.49 288.65a46 46 0 0 1 0-13.71 45.66 45.66 0 0 1 0 13.71ZM293 288.65a45.66 45.66 0 0 1 0-13.71 46 46 0 0 1 0 13.71ZM332.64 288.65a46 46 0 0 1 0-13.71 45.66 45.66 0 0 1 0 13.71Z"/></g><path d="M279.01 290.22v-3.64l77.58-2.45v6.09h-77.58z" style="opacity:.1"/><path d="M277.64 358.65h77.58v17.14h-77.58z" style="fill:#00b3ff" transform="rotate(180 316.43 367.225)"/><g style="opacity:.1"><path d="M352 374.23a46.06 46.06 0 0 1 0-13.72 45.73 45.73 0 0 1 0 13.72ZM346.24 374.23a46.06 46.06 0 0 1 0-13.72 45.73 45.73 0 0 1 0 13.72ZM343.42 374.23a46.06 46.06 0 0 1 0-13.72 45.73 45.73 0 0 1 0 13.72ZM327.93 374.23a45.73 45.73 0 0 1 0-13.72 46.06 46.06 0 0 1 0 13.72ZM323.74 374.23a45.73 45.73 0 0 1 0-13.72 45.73 45.73 0 0 1 0 13.72ZM306.4 374.23a46.06 46.06 0 0 1 0-13.72 45.73 45.73 0 0 1 0 13.72ZM302.4 374.23a45.73 45.73 0 0 1 0-13.72 46.06 46.06 0 0 1 0 13.72ZM295 374.23a46.06 46.06 0 0 1 0-13.72 45.4 45.4 0 0 1 0 13.72ZM309.75 374.23a46.06 46.06 0 0 1 0-13.72 45.73 45.73 0 0 1 0 13.72ZM338.3 374.23a46.06 46.06 0 0 1 0-13.72 46.06 46.06 0 0 1 0 13.72ZM318.22 374.23a46.06 46.06 0 0 1 0-13.72 45.73 45.73 0 0 1 0 13.72ZM315.33 374.23a46.06 46.06 0 0 1 0-13.72 45.73 45.73 0 0 1 0 13.72ZM285.46 374.23a45.73 45.73 0 0 1 0-13.72 46.06 46.06 0 0 1 0 13.72ZM281.13 374.23a45.73 45.73 0 0 1 0-13.72 46.06 46.06 0 0 1 0 13.72ZM291.63 374.23a46.06 46.06 0 0 1 0-13.72 45.73 45.73 0 0 1 0 13.72ZM331.28 374.23a45.4 45.4 0 0 1 0-13.72 46.06 46.06 0 0 1 0 13.72Z"/></g><path d="M277.64 375.8v-3.65l77.58-2.45v6.1h-77.58z" style="opacity:.1"/><path d="M267.48 375.79h77.58v17.14h-77.58z" style="fill:#00b3ff" transform="rotate(180 306.265 384.365)"/><g style="opacity:.1"><path d="M341.86 391.37a45.73 45.73 0 0 1 0-13.72 46.06 46.06 0 0 1 0 13.72ZM336.08 391.37a46.06 46.06 0 0 1 0-13.72 45.73 45.73 0 0 1 0 13.72ZM333.26 391.37a45.73 45.73 0 0 1 0-13.72 46.06 46.06 0 0 1 0 13.72ZM317.76 391.37a46.06 46.06 0 0 1 0-13.72 45.73 45.73 0 0 1 0 13.72ZM313.57 391.37a46.06 46.06 0 0 1 0-13.72 45.73 45.73 0 0 1 0 13.72ZM296.24 391.37a46.06 46.06 0 0 1 0-13.72 45.73 45.73 0 0 1 0 13.72ZM292.24 391.37a45.73 45.73 0 0 1 0-13.72 46.06 46.06 0 0 1 0 13.72ZM284.88 391.37a46.06 46.06 0 0 1 0-13.72 45.73 45.73 0 0 1 0 13.72ZM299.59 391.37a45.73 45.73 0 0 1 0-13.72 46.06 46.06 0 0 1 0 13.72ZM328.14 391.37a45.73 45.73 0 0 1 0-13.72 46.06 46.06 0 0 1 0 13.72ZM308.06 391.37a45.73 45.73 0 0 1 0-13.72 46.06 46.06 0 0 1 0 13.72ZM305.17 391.37a45.73 45.73 0 0 1 0-13.72 46.06 46.06 0 0 1 0 13.72ZM275.3 391.37a45.73 45.73 0 0 1 0-13.72 46.06 46.06 0 0 1 0 13.72ZM271 391.37a46.06 46.06 0 0 1 0-13.72 45.73 45.73 0 0 1 0 13.72ZM281.47 391.37a45.73 45.73 0 0 1 0-13.72 46.06 46.06 0 0 1 0 13.72ZM321.11 391.37a46.06 46.06 0 0 1 0-13.72 45.73 45.73 0 0 1 0 13.72Z"/></g><path d="M267.48 392.94v-3.65l77.58-2.44v6.09h-77.58z" style="opacity:.1"/><path d="M270.37 392.94h77.58v17.14h-77.58z" style="fill:#00b3ff" transform="rotate(180 309.155 401.51)"/><g style="opacity:.1"><path d="M344.75 408.51a45.73 45.73 0 0 1 0-13.72 46.06 46.06 0 0 1 0 13.72ZM339 408.51a46.06 46.06 0 0 1 0-13.72 46.06 46.06 0 0 1 0 13.72ZM336.15 408.51a45.73 45.73 0 0 1 0-13.72 46.06 46.06 0 0 1 0 13.72ZM320.65 408.51a46.06 46.06 0 0 1 0-13.72 45.73 45.73 0 0 1 0 13.72ZM316.46 408.51a46.06 46.06 0 0 1 0-13.72 45.73 45.73 0 0 1 0 13.72ZM299.13 408.51a45.73 45.73 0 0 1 0-13.72 46.06 46.06 0 0 1 0 13.72ZM295.12 408.51a46.06 46.06 0 0 1 0-13.72 45.73 45.73 0 0 1 0 13.72ZM287.77 408.51a46.06 46.06 0 0 1 0-13.72 45.73 45.73 0 0 1 0 13.72ZM302.48 408.51a45.73 45.73 0 0 1 0-13.72 46.06 46.06 0 0 1 0 13.72ZM331 408.51a45.73 45.73 0 0 1 0-13.72 46.06 46.06 0 0 1 0 13.72ZM311 408.51a45.73 45.73 0 0 1 0-13.72 46.06 46.06 0 0 1 0 13.72ZM308.06 408.51a45.73 45.73 0 0 1 0-13.72 46.06 46.06 0 0 1 0 13.72ZM278.19 408.51a45.73 45.73 0 0 1 0-13.72 46.06 46.06 0 0 1 0 13.72ZM273.85 408.51a46.06 46.06 0 0 1 0-13.72 45.73 45.73 0 0 1 0 13.72ZM284.36 408.51a45.73 45.73 0 0 1 0-13.72 46.06 46.06 0 0 1 0 13.72ZM324 408.51a46.06 46.06 0 0 1 0-13.72 45.73 45.73 0 0 1 0 13.72Z"/></g><path d="M270.37 410.08v-3.64l77.58-2.45v6.09h-77.58z" style="opacity:.1"/><path d="M267.48 410.08h77.58v17.14h-77.58z" style="fill:#00b3ff" transform="rotate(180 306.265 418.65)"/><g style="opacity:.1"><path d="M341.86 425.65a45.66 45.66 0 0 1 0-13.71 46 46 0 0 1 0 13.71ZM336.08 425.65a46 46 0 0 1 0-13.71 45.66 45.66 0 0 1 0 13.71ZM333.26 425.65a45.66 45.66 0 0 1 0-13.71 46 46 0 0 1 0 13.71ZM317.76 425.65a46 46 0 0 1 0-13.71 45.66 45.66 0 0 1 0 13.71ZM313.57 425.65a46 46 0 0 1 0-13.71 45.66 45.66 0 0 1 0 13.71ZM296.24 425.65a46 46 0 0 1 0-13.71 45.66 45.66 0 0 1 0 13.71ZM292.24 425.65a45.66 45.66 0 0 1 0-13.71 46 46 0 0 1 0 13.71ZM284.88 425.65a46 46 0 0 1 0-13.71 45.66 45.66 0 0 1 0 13.71ZM299.59 425.65a45.66 45.66 0 0 1 0-13.71 46 46 0 0 1 0 13.71ZM328.14 425.65a45.66 45.66 0 0 1 0-13.71 46 46 0 0 1 0 13.71ZM308.06 425.65a45.66 45.66 0 0 1 0-13.71 46 46 0 0 1 0 13.71ZM305.17 425.65a45.66 45.66 0 0 1 0-13.71 46 46 0 0 1 0 13.71ZM275.3 425.65a45.66 45.66 0 0 1 0-13.71 46 46 0 0 1 0 13.71ZM271 425.65a46 46 0 0 1 0-13.71 45.66 45.66 0 0 1 0 13.71ZM281.47 425.65a45.66 45.66 0 0 1 0-13.71 46 46 0 0 1 0 13.71ZM321.11 425.65a46 46 0 0 1 0-13.71 45.66 45.66 0 0 1 0 13.71Z"/></g><path d="M267.48 427.22v-3.64l77.58-2.45v6.09h-77.58z" style="opacity:.1"/><path d="M261.99 427.22h77.58v17.14h-77.58z" style="fill:#00b3ff" transform="rotate(180 300.775 435.795)"/><g style="opacity:.1"><path d="M336.37 442.79a45.66 45.66 0 0 1 0-13.71 46 46 0 0 1 0 13.71ZM330.59 442.79a46 46 0 0 1 0-13.71 45.66 45.66 0 0 1 0 13.71ZM327.77 442.79a45.66 45.66 0 0 1 0-13.71 46 46 0 0 1 0 13.71ZM312.27 442.79a46 46 0 0 1 0-13.71 45.34 45.34 0 0 1 0 13.71ZM308.08 442.79a46 46 0 0 1 0-13.71 45.66 45.66 0 0 1 0 13.71ZM290.75 442.79a46 46 0 0 1 0-13.71 45.66 45.66 0 0 1 0 13.71ZM286.75 442.79a45.66 45.66 0 0 1 0-13.71 46 46 0 0 1 0 13.71ZM279.39 442.79a46 46 0 0 1 0-13.71 45.66 45.66 0 0 1 0 13.71ZM294.1 442.79a45.66 45.66 0 0 1 0-13.71 46 46 0 0 1 0 13.71ZM322.65 442.79a45.66 45.66 0 0 1 0-13.71 46 46 0 0 1 0 13.71ZM302.57 442.79a45.66 45.66 0 0 1 0-13.71 46 46 0 0 1 0 13.71ZM299.68 442.79a45.66 45.66 0 0 1 0-13.71 46 46 0 0 1 0 13.71ZM269.81 442.79a45.66 45.66 0 0 1 0-13.71 46 46 0 0 1 0 13.71ZM265.47 442.79a46 46 0 0 1 0-13.71 45.66 45.66 0 0 1 0 13.71ZM276 442.79a45.66 45.66 0 0 1 0-13.71 46 46 0 0 1 0 13.71ZM315.62 442.79a46 46 0 0 1 0-13.71 45.66 45.66 0 0 1 0 13.71Z"/></g><path d="M261.99 444.36v-3.64l77.58-2.45v6.09h-77.58z" style="opacity:.1"/><path d="M267.48 444.36h77.58v17.14h-77.58z" style="fill:#00b3ff" transform="rotate(180 306.265 452.935)"/><g style="opacity:.1"><path d="M341.86 459.94a45.73 45.73 0 0 1 0-13.72 46.06 46.06 0 0 1 0 13.72ZM336.08 459.94a46.06 46.06 0 0 1 0-13.72 45.73 45.73 0 0 1 0 13.72ZM333.26 459.94a45.73 45.73 0 0 1 0-13.72 46.06 46.06 0 0 1 0 13.72ZM317.76 459.94a46.06 46.06 0 0 1 0-13.72 45.73 45.73 0 0 1 0 13.72ZM313.57 459.94a46.06 46.06 0 0 1 0-13.72 45.73 45.73 0 0 1 0 13.72ZM296.24 459.94a46.06 46.06 0 0 1 0-13.72 45.73 45.73 0 0 1 0 13.72ZM292.24 459.94a45.73 45.73 0 0 1 0-13.72 46.06 46.06 0 0 1 0 13.72ZM284.88 459.94a46.06 46.06 0 0 1 0-13.72 45.73 45.73 0 0 1 0 13.72ZM299.59 459.94a45.73 45.73 0 0 1 0-13.72 46.06 46.06 0 0 1 0 13.72ZM328.14 459.94a45.73 45.73 0 0 1 0-13.72 46.06 46.06 0 0 1 0 13.72ZM308.06 459.94a45.73 45.73 0 0 1 0-13.72 46.06 46.06 0 0 1 0 13.72ZM305.17 459.94a45.73 45.73 0 0 1 0-13.72 46.06 46.06 0 0 1 0 13.72ZM275.3 459.94a45.73 45.73 0 0 1 0-13.72 46.06 46.06 0 0 1 0 13.72ZM271 459.94a46.06 46.06 0 0 1 0-13.72 45.73 45.73 0 0 1 0 13.72ZM281.47 459.94a45.73 45.73 0 0 1 0-13.72 46.06 46.06 0 0 1 0 13.72ZM321.11 459.94a46.06 46.06 0 0 1 0-13.72 45.73 45.73 0 0 1 0 13.72Z"/></g><path d="M267.48 461.51v-3.65l77.58-2.44v6.09h-77.58z" style="opacity:.1"/><path d="M267.02 307.23h77.58v17.14h-77.58z" style="fill:#00b3ff" transform="rotate(180 305.81 315.8)"/><g style="opacity:.1"><path d="M341.4 322.8a46.06 46.06 0 0 1 0-13.72 45.73 45.73 0 0 1 0 13.72ZM335.62 322.8a46.06 46.06 0 0 1 0-13.72 45.73 45.73 0 0 1 0 13.72ZM332.8 322.8a46.06 46.06 0 0 1 0-13.72 45.73 45.73 0 0 1 0 13.72ZM317.31 322.8a45.73 45.73 0 0 1 0-13.72 46.06 46.06 0 0 1 0 13.72ZM313.12 322.8a45.73 45.73 0 0 1 0-13.72 46.06 46.06 0 0 1 0 13.72ZM295.78 322.8a46.06 46.06 0 0 1 0-13.72 45.73 45.73 0 0 1 0 13.72ZM291.78 322.8a45.73 45.73 0 0 1 0-13.72 46.06 46.06 0 0 1 0 13.72ZM284.43 322.8a45.73 45.73 0 0 1 0-13.72 46.06 46.06 0 0 1 0 13.72ZM299.13 322.8a46.06 46.06 0 0 1 0-13.72 45.73 45.73 0 0 1 0 13.72ZM327.68 322.8a46.06 46.06 0 0 1 0-13.72 45.73 45.73 0 0 1 0 13.72ZM307.6 322.8a46.06 46.06 0 0 1 0-13.72 45.73 45.73 0 0 1 0 13.72ZM304.71 322.8a46.06 46.06 0 0 1 0-13.72 45.73 45.73 0 0 1 0 13.72ZM274.84 322.8a46.06 46.06 0 0 1 0-13.72 45.73 45.73 0 0 1 0 13.72ZM270.51 322.8a45.73 45.73 0 0 1 0-13.72 46.06 46.06 0 0 1 0 13.72ZM281 322.8a46.06 46.06 0 0 1 0-13.72 45.73 45.73 0 0 1 0 13.72ZM320.66 322.8a45.73 45.73 0 0 1 0-13.72 46.06 46.06 0 0 1 0 13.72Z"/></g><path d="M267.02 324.37v-3.64l77.58-2.45v6.09h-77.58z" style="opacity:.1"/><path d="M268.98 324.37h77.58v17.14h-77.58z" style="fill:#00b3ff" transform="rotate(180 307.77 332.94)"/><g style="opacity:.1"><path d="M272.47 326.23a46 46 0 0 1 0 13.71 45.66 45.66 0 0 1 0-13.71ZM278.24 326.23a45.66 45.66 0 0 1 0 13.71 46 46 0 0 1 0-13.71ZM281.07 326.23a46 46 0 0 1 0 13.71 45.66 45.66 0 0 1 0-13.71ZM296.56 326.23a46 46 0 0 1 0 13.71 46 46 0 0 1 0-13.71ZM300.75 326.23a45.66 45.66 0 0 1 0 13.71 46 46 0 0 1 0-13.71ZM318.08 326.23a45.66 45.66 0 0 1 0 13.71 46 46 0 0 1 0-13.71ZM322.09 326.23a46 46 0 0 1 0 13.71 45.66 45.66 0 0 1 0-13.71ZM329.44 326.23a45.66 45.66 0 0 1 0 13.71 46 46 0 0 1 0-13.71ZM314.74 326.23a46 46 0 0 1 0 13.71 45.66 45.66 0 0 1 0-13.71ZM286.19 326.23a46 46 0 0 1 0 13.71 45.66 45.66 0 0 1 0-13.71ZM306.27 326.23a46 46 0 0 1 0 13.71 45.66 45.66 0 0 1 0-13.71ZM309.16 326.23a46 46 0 0 1 0 13.71 45.66 45.66 0 0 1 0-13.71ZM339 326.23a46 46 0 0 1 0 13.71 45.66 45.66 0 0 1 0-13.71ZM343.36 326.23a45.66 45.66 0 0 1 0 13.71 46 46 0 0 1 0-13.71ZM332.86 326.23a46 46 0 0 1 0 13.71 45.66 45.66 0 0 1 0-13.71ZM293.21 326.23a45.66 45.66 0 0 1 0 13.71 46 46 0 0 1 0-13.71Z"/></g><path d="M268.98 341.51v-3.64l77.58-2.45v6.09h-77.58z" style="opacity:.1"/><path d="M273.7 341.51h77.58v17.14H273.7z" style="fill:#00b3ff" transform="rotate(180 312.485 350.085)"/><g style="opacity:.1"><path d="M348.08 357.08a45.66 45.66 0 0 1 0-13.71 46 46 0 0 1 0 13.71ZM342.3 357.08a46 46 0 0 1 0-13.71 45.66 45.66 0 0 1 0 13.71ZM339.48 357.08a45.66 45.66 0 0 1 0-13.71 46 46 0 0 1 0 13.71ZM324 357.08a45.66 45.66 0 0 1 0-13.71 46 46 0 0 1 0 13.71ZM319.79 357.08a46 46 0 0 1 0-13.71 45.66 45.66 0 0 1 0 13.71ZM302.46 357.08a46 46 0 0 1 0-13.71 45.66 45.66 0 0 1 0 13.71ZM298.46 357.08a45.66 45.66 0 0 1 0-13.71 46 46 0 0 1 0 13.71ZM291.1 357.08a46 46 0 0 1 0-13.71 45.66 45.66 0 0 1 0 13.71ZM305.81 357.08a45.66 45.66 0 0 1 0-13.71 46 46 0 0 1 0 13.71ZM334.36 357.08a45.66 45.66 0 0 1 0-13.71 46 46 0 0 1 0 13.71ZM314.28 357.08a45.66 45.66 0 0 1 0-13.71 46 46 0 0 1 0 13.71ZM311.39 357.08a45.66 45.66 0 0 1 0-13.71 46 46 0 0 1 0 13.71ZM281.52 357.08a45.66 45.66 0 0 1 0-13.71 46 46 0 0 1 0 13.71ZM277.19 357.08a45.34 45.34 0 0 1 0-13.71 46 46 0 0 1 0 13.71ZM287.69 357.08a45.66 45.66 0 0 1 0-13.71 46 46 0 0 1 0 13.71ZM327.33 357.08a46 46 0 0 1 0-13.71 45.66 45.66 0 0 1 0 13.71Z"/></g><path d="M273.7 358.65v-3.64l77.58-2.45v6.09H273.7z" style="opacity:.1"/><path d="M273.7 290.08h77.58v17.14H273.7z" style="fill:#00b3ff" transform="rotate(180 312.49 298.655)"/><g style="opacity:.1"><path d="M277.19 291.94a46.06 46.06 0 0 1 0 13.72 45.73 45.73 0 0 1 0-13.72ZM283 291.94a45.73 45.73 0 0 1 0 13.72 46.06 46.06 0 0 1 0-13.72ZM285.79 291.94a46.06 46.06 0 0 1 0 13.72 45.73 45.73 0 0 1 0-13.72ZM301.28 291.94a45.73 45.73 0 0 1 0 13.72 46.06 46.06 0 0 1 0-13.72ZM305.47 291.94a45.73 45.73 0 0 1 0 13.72 46.06 46.06 0 0 1 0-13.72ZM322.8 291.94a45.73 45.73 0 0 1 0 13.72 46.06 46.06 0 0 1 0-13.72ZM326.81 291.94a46.06 46.06 0 0 1 0 13.72 45.73 45.73 0 0 1 0-13.72ZM334.16 291.94a45.73 45.73 0 0 1 0 13.72 46.06 46.06 0 0 1 0-13.72ZM319.46 291.94a46.06 46.06 0 0 1 0 13.72 45.73 45.73 0 0 1 0-13.72ZM290.91 291.94a46.06 46.06 0 0 1 0 13.72 45.73 45.73 0 0 1 0-13.72ZM311 291.94a46.06 46.06 0 0 1 0 13.72 45.73 45.73 0 0 1 0-13.72ZM313.88 291.94a46.06 46.06 0 0 1 0 13.72 45.73 45.73 0 0 1 0-13.72ZM343.75 291.94a46.06 46.06 0 0 1 0 13.72 45.73 45.73 0 0 1 0-13.72ZM348.08 291.94a45.73 45.73 0 0 1 0 13.72 46.06 46.06 0 0 1 0-13.72ZM337.58 291.94a46.06 46.06 0 0 1 0 13.72 45.73 45.73 0 0 1 0-13.72ZM297.93 291.94a45.73 45.73 0 0 1 0 13.72 46.06 46.06 0 0 1 0-13.72Z"/></g><path d="M273.7 307.23v-3.65l77.58-2.44v6.09H273.7z" style="opacity:.1"/><path d="M252.26 384.8c51.07 9.16 37.58 84.82-13.57 75.64s-37.58-84.82 13.57-75.64Z" style="fill:#00b3ff"/><path d="M252.26 384.8c51.07 9.16 37.58 84.82-13.57 75.64s-37.58-84.82 13.57-75.64Z" style="opacity:.1"/><path d="M247.47 383.94c48.67 8.73 35.17 84.38-13.58 75.64s-35.17-84.39 13.58-75.64Z" style="fill:#00b3ff"/><path d="M209.81 423.54c.27 13.48 8.11 26.54 25.24 29.61 40.46 7.26 51.66-55.53 11.27-62.78-.27-.05-.53-.09-.8-.12 37.88 7.58 27 67-11.55 60.07-15.73-2.82-23.32-14.45-24.16-26.78Z" style="opacity:.1"/><path d="M244.89 398.22a1.29 1.29 0 0 1 .93 1.55l-.51 2.08a17.45 17.45 0 0 1 8.33 5.94 1.49 1.49 0 0 1 .43 1.37 1.38 1.38 0 0 1-1.68 1 1.3 1.3 0 0 1-.84-.59 15.28 15.28 0 0 0-6.94-5.32L241 418.74c7.47 3.63 10.06 7.42 8.79 12.51-1.37 5.5-7 8.24-13.5 6.83l-1 4.05a1.28 1.28 0 1 1-2.49-.63l1-4.1a20.08 20.08 0 0 1-10.42-7.94 1.35 1.35 0 0 1 1.32-2.21 1.34 1.34 0 0 1 .84.6 17.29 17.29 0 0 0 8.95 7.24l3.69-14.79c-7.36-3.65-9.87-7.31-8.57-12.5s6.87-8.1 13.24-6.68l.49-2a1.3 1.3 0 0 1 1.55-.9Zm-6.06 19.44 3.53-14.17c-5.06-1.16-9.13 1-10.06 4.76-.89 3.53.23 6.13 6.53 9.41Zm1.49 3.73-3.57 14.33c5.21 1.19 9.34-1 10.32-4.93.93-3.58-.38-6.21-6.75-9.4Z" style="opacity:.1"/><path d="m361 348.81-33.37 27c-6.41 5.12-11.93 9.72-14.57 12.37-1 1-1.57 1.71-1.6 2.06v.07c.23 2.94 39.66 55.31 41.65 56.67s6-4.2 6.12-7.45-6-30.07-6-30.07l33.08-27.25Z" style="fill:#eb9481"/><path d="m334.48 370.24-6.84 5.54c-6.41 5.12-11.93 9.72-14.57 12.37a11 11 0 0 0-1.6 2.06s0 0 0 .07c.23 2.94 39.66 55.31 41.65 56.67s6-4.2 6.12-7.45-6-30.07-6-30.07l7-5.52Z" style="fill:#ebebeb"/><path d="M353.07 447c-2-1.37-41.42-53.74-41.65-56.69-.11-1.11 7.19-7.3 16.22-14.53l.28-.22 25.82 33.5-.59.42s6.13 26.79 6 30.06-4.09 8.83-6.08 7.46Z" style="fill:#00b3ff"/><path d="M353.07 447c-2-1.37-41.42-53.74-41.65-56.69-.11-1.11 7.19-7.3 16.22-14.53l.28-.22 25.82 33.5-.59.42s6.13 26.79 6 30.06-4.09 8.83-6.08 7.46Z" style="opacity:.30000000000000004"/><path d="M354.65 444.87c-6.43-9-33.2-44.65-40.24-53-.06-.07-.11 0-.06 0 6.18 9.05 33.25 44.49 40.16 53.11.15.19.28.08.14-.11ZM355.19 412.39c-2-4-5.7-7.81-10.18-8.6-.17 0-.21.22-.09.31a61.35 61.35 0 0 1 9.82 8.61.28.28 0 0 0 .45-.32ZM355.56 416c-2-4-5.7-7.81-10.17-8.6-.17 0-.21.21-.09.3a60.43 60.43 0 0 1 9.81 8.62.28.28 0 0 0 .45-.32ZM355.94 419.68c-2-4-5.7-7.81-10.17-8.6-.18 0-.22.22-.1.31a60.92 60.92 0 0 1 9.82 8.61.28.28 0 0 0 .45-.32Z" style="fill:#263238"/><path d="M379 316.69c-2.36 11.67-50.77 58.23-50.77 58.23l33.75 39s68.73-68.61 65.15-94.39c-3.13-22.43-36.7-112.6-36.7-112.6h-38.69s29.63 98.29 27.26 109.76Z" style="fill:#37474f"/><path d="M365.86 404.61c-4.48-5.58-3.12-4-7.66-9.57-2.23-2.71-16.87-20.48-19.39-22.65-.05 0-.14 0-.11.1 1.69 2.86 16.64 20.37 18.91 23 4.65 5.44 3.38 3.83 8.09 9.22a.11.11 0 0 0 .16-.1ZM383.85 311c-.55-2.91-1.18-5.81-1.8-8.71q-1.89-8.88-4-17.72-4.17-17.57-9.05-34.86c-3.31-11.59-6.8-23.16-10.81-34.52-.5-1.41-1-2.81-1.53-4.21 0-.1-.2-.06-.17.05 3.48 11.39 7.07 22.74 10.34 34.19s6.26 22.87 9.09 34.38c1.42 5.78 2.75 11.59 4 17.4q1 4.28 1.87 8.57a62.15 62.15 0 0 1 1.62 8.84 13.44 13.44 0 0 1-2.27 8c-1.46 2.38-3.17 4.61-4.82 6.85-3.31 4.49-34.83 39.62-35.85 40.57-.07.08 0 .19.13.12 4.23-3.8 31-32.75 34.37-37.23q2.52-3.33 4.93-6.74a26.92 26.92 0 0 0 3.85-6.78 16 16 0 0 0 .1-8.2Z" style="fill:#263238"/><path d="M367.16 396.89s8.37 40.71 8.36 40.74c.12 8.2.36 15.39.83 19.09a.13.13 0 0 0 0 .06 5.87 5.87 0 0 0 .64 2.53s0 0 .05.05c2.46 1.62 68 2.64 70.31 1.9s.39-7.34-2.13-9.41-27.44-13.68-27.44-13.68L409 397.48Z" style="fill:#eb9481"/><path d="M447.36 461.26c-2.29.73-67.85-.28-70.31-1.9l-.05-.05a5.67 5.67 0 0 1-.64-2.53.13.13 0 0 1 0-.06c-.47-3.7-.71-10.89-.83-19.08l-1.45-7.09h42.08l1.64 7.61s24.91 11.62 27.45 13.69 4.42 8.69 2.11 9.41Z" style="fill:#ebebeb"/><path d="M447.36 461.26c-2.3.74-67.84-.28-70.31-1.9-.95-.6-1.36-10.16-1.52-21.73v-.36l42.29.18v.72s24.92 11.61 27.45 13.69 4.39 8.68 2.09 9.4Z" style="fill:#00b3ff"/><path d="M447.36 461.26c-2.3.74-67.84-.28-70.31-1.9-.95-.6-1.36-10.16-1.52-21.73v-.36l42.29.18v.72s24.92 11.61 27.45 13.69 4.39 8.68 2.09 9.4Z" style="opacity:.30000000000000004"/><path d="M446.66 458.71c-11.05-.44-55.63-1.19-66.58-.78-.09 0-.09.06 0 .07 10.94.67 55.53 1.06 66.59.89.22 0 .22-.17-.01-.18ZM421.34 438.35c-4.33-.87-9.66-.29-13 2.76-.13.11 0 .3.18.26a60.75 60.75 0 0 1 12.83-2.47.28.28 0 0 0-.01-.55ZM424.45 440.29c-4.33-.87-9.66-.29-13 2.76-.13.11 0 .3.18.26a61.39 61.39 0 0 1 12.83-2.47.28.28 0 0 0-.01-.55ZM427.56 442.23c-4.33-.87-9.66-.29-13 2.76-.13.11 0 .3.18.26a61.39 61.39 0 0 1 12.83-2.47.28.28 0 0 0-.01-.55Z" style="fill:#263238"/><path d="M386.74 206.89a156.58 156.58 0 0 0-3.33 19.32c-.81 8.11-1.82 15.28-2.9 16.17s-7.34 4.94-9.41 6.2c0 0 19.09 57.85 24 77.13 7.14 28 24.24 111.84 24.24 111.84h-45.55s-13.85-79.85-19.91-106.46c-5.19-22.82-25.08-91.28-25.08-91.28a39.71 39.71 0 0 1 1.61-32.91s56.33-.05 56.33-.01Z" style="fill:#37474f"/><path d="M417.71 428.68c-7.16 0-5.11-.13-12.27-.09-3.5 0-26.53.18-29.79.77-.07 0-.07.14 0 .15 3.28.49 26.3-.07 29.8-.15 7.16-.18 5.1-.21 12.26-.47.13-.01.13-.21 0-.21ZM383.74 240.1a86.61 86.61 0 0 0-12.57 8.41.16.16 0 0 0 .17.26c4.26-2.67 8.62-5.27 12.73-8.17a.3.3 0 0 0-.33-.5ZM380.26 208.62c0-.15-.32-.15-.29 0a154 154 0 0 1 1.6 15.37c.15 2.39.28 15.67-3.95 15.36-.7-.05-1.16-.67-1.42-1.68a16.76 16.76 0 0 1-.08-4.07c0-2.79 0-5.58-.22-8.36a76 76 0 0 0-2.55-15.35.14.14 0 0 0-.27.06 142.38 142.38 0 0 1 2.06 21.41c0 3.46-.9 8.81 2.71 8.78s4.69-8.91 4.77-11.31a78.83 78.83 0 0 0-2.36-20.21Z" style="fill:#263238"/><path d="M377.79 239.7a20.83 20.83 0 0 0-.5 2.84 6.19 6.19 0 0 0 0 2.27c0 .14.23.12.29 0a8 8 0 0 0 .62-2.31c.18-.88.38-1.75.53-2.64a.46.46 0 0 0-.94-.16ZM368.49 403.58c-.12-1.06-.26-2.11-.41-3.16-.28-2-.62-4-.93-6.05-.63-4.05-1.32-8.08-2-12.12-1.43-8-3.08-16.06-4.82-24.05-1-4.51-2.13-9-3.33-13.43-.09-.31-.53-.16-.47.14.73 4.08 1.44 8.17 2.27 12.23s1.66 8.1 2.47 12.15c1.59 8 3.07 16.06 4.66 24.07.45 2.27.85 4.54 1.3 6.8.22 1.13.44 2.26.69 3.38s.59 2.23.77 3.36c0 .11.18.06.16 0-.21-1.13-.23-2.23-.36-3.32ZM399.91 343c-1.52-7.56-3.56-15-5.62-22.45-4.14-14.95-9-29.68-13.88-44.41l-4.2-12.73c-.7-2.12-4.14-13.56-4.56-14.65a.09.09 0 0 0-.18 0c1 3.9 2.33 9.58 3.47 13.44s2.35 7.6 3.54 11.39c2.32 7.46 4.69 14.91 6.95 22.39 4.47 14.78 8.9 29.56 12.53 44.58 1 4.21 2 8.41 3 12.64s1.72 8.46 2.6 12.69c0 .11.22.08.21 0-.77-7.65-2.34-15.27-3.86-22.89ZM371.59 382.59c-2.51-14.42-5.52-28.77-8.84-43s-7.07-28.56-11.18-42.69-8.65-28.12-13.53-42a176.63 176.63 0 0 1-6.19-20c-1.5-6.74-2.26-14-.69-20.82a35.75 35.75 0 0 1 1.55-5.07c.05-.11-.12-.21-.17-.09-5.48 12.77-1.92 26.73 2.25 39.32 2.29 6.9 4.73 13.74 7 20.65q3.47 10.64 6.65 21.36 6.3 21.27 11.56 42.75t9.35 43.33c2.75 14.58 5.06 29.21 7.41 43.85.3 1.9.54 3.82.79 5.73 0 .11.19.11.17 0-1.72-14.47-3.63-28.91-6.13-43.32Z" style="fill:#263238"/><path d="M336.69 233.54c1.09-.41 2.31-.51 3.43-.82a26.9 26.9 0 0 0 9.51-4.74 14 14 0 0 0 3.94-5.61c.5-1.16 2.67-7.29 2.69-7.34s.35-.09.34.06c-.05.83-1.29 6.07-1.71 7.39a13.64 13.64 0 0 1-4 6.47 21.2 21.2 0 0 1-6.72 3.76 22.42 22.42 0 0 1-3.84 1 10.21 10.21 0 0 1-3.69.18c-.17-.02-.1-.29.05-.35ZM397.54 229.53a14.41 14.41 0 0 0-1.85-.63 10.92 10.92 0 0 1-1.89-1 15.1 15.1 0 0 1-3.4-3 15.46 15.46 0 0 1-2.48-5c-.35-1-1.29-6.68-1.31-6.72s-.19-.07-.17.06a47.75 47.75 0 0 0 .8 6.81 16.92 16.92 0 0 0 2.56 5.82 12 12 0 0 0 3.77 3.21 8.29 8.29 0 0 0 2.08.79 3.08 3.08 0 0 0 1.92 0c.11-.05.05-.29-.03-.34Z" style="fill:#263238"/><path d="M370.37 147.94c9.93 17.72 31 40.14 39 39.67 3.81-.22 10.67.2 15.35-4.53 10.21-10.32 16-23.07 19.32-32.14 1.3-3.55-18.46-18.17-20.91-14.95-5.74 7.53-12 21.95-13.12 21.94-4.12 0-20.88-12.47-32.92-20.78-13.53-9.3-10.67 3.73-6.72 10.79Z" style="fill:#eb9481"/><path d="m422.58 100.79-9.24 29.55c-.37.86 0 1.6.9 1.64l15.46.87a2.5 2.5 0 0 0 2.24-1.47l9.23-29.54c.37-.87 0-1.6-.89-1.65l-15.47-.87a2.5 2.5 0 0 0-2.23 1.47Z" style="fill:#37474f"/><path d="m424.41 100.88-9.23 29.54a1.07 1.07 0 0 0 .9 1.65l15.46.87a2.5 2.5 0 0 0 2.23-1.47l9.23-29.55c.37-.86 0-1.6-.9-1.64l-15.46-.87a2.52 2.52 0 0 0-2.23 1.47Z" style="fill:#455a64"/><path d="M428.58 102.49a1.32 1.32 0 1 1-1.21-1.42 1.33 1.33 0 0 1 1.21 1.42Z" style="fill:#263238"/><path d="M446.42 129.36c-1.44-7.79-3-9.57-.74-16.79 1.49-4.74-.89-7.73-4.56-4.09-6 6-6.24 16.4-5.28 20Z" style="fill:#eb9481"/><path d="M443.59 152.06s4.11-10.46 3.4-18.91c-.5-5.84-3-18.44-18.78-26-3.74-1.8-10.35-1.71-5.31 3.45 3.59 3.66 7 4.91 8.66 7.42 0 0-8.39 1.11-10.05 4.93a77.24 77.24 0 0 0-3.62 10.29 15.73 15.73 0 0 0 1.87.85s-1.44 3.63 1 9.06Z" style="fill:#eb9481"/><path d="M445.62 127.65c-2.21-2.14-7-6.59-12.13-8.88-5.74-2.53-17.46-5.88-19.3-1.63-1.34 3.12 3 4.79 3 4.79s-5.14-.36-5.74 2.72c-.54 2.81 2.91 3.9 2.91 3.9s-3.15.32-3.15 3.12c0 3.38 6.6 2.16 9.55 5.58.7.75 24.86-9.6 24.86-9.6Z" style="fill:#eb9481"/><path d="M431.81 125.28a24.91 24.91 0 0 0-14.49-3.43c-.13 0-.18.12-.06.13a61.79 61.79 0 0 1 14.53 3.35s.05-.03.02-.05ZM429.08 131c-2.22-1.22-9-3.39-14.67-2.56-.13 0-.18.13-.06.14a65.62 65.62 0 0 1 14.71 2.48s.05-.06.02-.06Z" style="fill:#263238"/><path d="m418.4 142 23.6 18.09s-12.43 22.91-21.66 26.26-12.14 2.35-14.72 1.85-22-15.86-35-39.51c-12.25-22.34 2-15.63 12.63-7.87 6 4.42 25.36 15.91 26.11 15.66S418.4 142 418.4 142Z" style="fill:#00b3ff"/><path d="m418.4 142 23.6 18.09s-12.43 22.91-21.66 26.26-12.14 2.35-14.72 1.85-22-15.86-35-39.51c-12.25-22.34 2-15.63 12.63-7.87 6 4.42 25.36 15.91 26.11 15.66S418.4 142 418.4 142Z" style="fill:#050400;opacity:.2"/><path d="M416.6 147.34c3.69 2.73 7.3 5.56 10.88 8.42 1.76 1.4 8.52 7.24 10.47 8.89.07.07-.1.28-.19.22-1.91-1.39-9.05-7.1-10.78-8.53-3.53-2.91-7-5.85-10.46-8.9a.06.06 0 0 1 .08-.1Z" style="fill:#263238"/><path d="M401.35 185.5c-7-5.43-20.74-18.69-30.69-36.81-6.52-11.89-5.52-15.55-1.56-15.21 3.44 5.43 22.11 35.6 32.25 52.02Z" style="fill:#050400;opacity:.1"/><path d="M326.17 220.3c.16.18 69-.31 69.66-1 .87-1-15.45-75.47-22.61-84.61-1.54-2-6.53-2.46-10.77-1.89a19.5 19.5 0 0 0-3.25.71h-.11a7.6 7.6 0 0 0-2.39 1.2c-11.7 9.54-21.29 42.56-23.51 52.47-3.68 16.33-7.6 32.48-7.02 33.12Z" style="fill:#ebebeb"/><path d="M358.35 133.65s4.49 30.66 5.55 38.59.05 49.91.05 49.91l-43.21 3.65s9.05-27.88 9.15-29.65c0 0 7.17-33.49 14.56-47.32a41.89 41.89 0 0 1 13.9-15.18Z" style="fill:#00b3ff"/><path d="M358.35 133.65s4.49 30.66 5.55 38.59.05 49.91.05 49.91l-43.21 3.65s9.05-27.88 9.15-29.65c0 0 7.17-33.49 14.56-47.32a41.89 41.89 0 0 1 13.9-15.18Z" style="fill:#050400;opacity:.2"/><path d="m353.36 137.49-13 86.65-19.6 1.66s9.06-27.88 9.15-29.64c0 0 7.18-33.5 14.57-47.34a42.41 42.41 0 0 1 8.88-11.33Z" style="fill:#37474f"/><path d="M373.67 134.29s4.91 30.9 5.43 33.46 8 53 8 53l10.82.23-5.87-23s-13.16-57.15-18.38-63.69Z" style="fill:#00b3ff"/><path d="M373.67 134.29s4.91 30.9 5.43 33.46 8 53 8 53l10.82.23-5.87-23s-13.16-57.15-18.38-63.69Z" style="fill:#050400;opacity:.2"/><path d="M370.3 144.1c-3.29.37-9.5-4.2-11.24-9-.11-.33.86-3.48 1.87-7.36.61-2.36 1.22-5 1.61-7.45.08-.5 14.77 6.16 14.77 6.16a39.48 39.48 0 0 0-3 9.17 6 6 0 0 0-.05 1v.17c.03 1.94-.44 6.9-3.96 7.31Z" style="fill:#eb9481"/><path d="M374.29 136.6v.17a10.31 10.31 0 0 1-1.58-.16c-9-1.63-9.6-13.33-9.61-16.27 2.67.83 14.23 6.07 14.23 6.07a39.45 39.45 0 0 0-3 9.18 5.8 5.8 0 0 0-.04 1.01Z" style="fill:#263238"/><path d="M362.7 100.74c-2.35 5.26-1.45 21.42 2 25.44 5 5.82 14.17 7.47 19.37 1.23 5-6 3.49-27.09-.46-30.84-5.81-5.52-17.42-3.57-20.91 4.17Z" style="fill:#eb9481"/><path d="M377 112.8s-.09 0-.08.09c.06 1.09-.05 2.35-1 2.74v.06c1.19-.2 1.32-1.87 1.08-2.89Z" style="fill:#263238"/><path d="M376 111.68c-1.76-.09-1.81 3.43-.18 3.52s1.66-3.44.18-3.52ZM383.32 112.84s.08 0 .08.1c0 1.09.08 2.34 1.06 2.72v.06c-1.21-.18-1.36-1.85-1.14-2.88Z" style="fill:#263238"/><path d="M384.31 111.72c1.75-.11 1.84 3.41.22 3.51s-1.69-3.42-.22-3.51ZM374.64 110.05a13 13 0 0 0 1.37-.46 2.31 2.31 0 0 0 1.31-.74.76.76 0 0 0-.11-.9 1.85 1.85 0 0 0-1.86-.21 2.74 2.74 0 0 0-1.58 1.15.79.79 0 0 0 .87 1.16ZM385.69 110a11.45 11.45 0 0 1-1.39-.38 2.37 2.37 0 0 1-1.35-.66.75.75 0 0 1 .05-.96 1.84 1.84 0 0 1 1.84-.32 2.65 2.65 0 0 1 1.64 1.06.79.79 0 0 1-.79 1.26ZM375.86 122.68c.25.26.51.62.91.65a2.83 2.83 0 0 0 1.17-.25h.05a1.47 1.47 0 0 1-1.39.58 1.18 1.18 0 0 1-.85-1 .06.06 0 0 1 .11.02Z" style="fill:#263238"/><path d="M377.05 119.43a3.71 3.71 0 0 0 2.45 1.69 5 5 0 0 0 1.34.08 1 1 0 0 0 .25 0 1 1 0 0 0 .24 0 .29.29 0 0 0 .23-.24.41.41 0 0 0 0-.11v-2.21c.3.16 1.86.88 1.84.44a56.31 56.31 0 0 0-1.28-11.25c0-.12-.21-.1-.2 0 0 3.5.65 7 .73 10.49a6.49 6.49 0 0 0-1.74-.56c-.12 0 .16 2.47.12 2.84a5.19 5.19 0 0 1-3.83-1.24c-.13-.09-.2-.02-.15.07Z" style="fill:#263238"/><path d="M380.35 120.77a4.45 4.45 0 0 1-1.78 1.34 2 2 0 0 1-1.21.06c-.87-.24-.88-1-.71-1.73a4.75 4.75 0 0 1 .41-1 5.7 5.7 0 0 0 3.29 1.33Z" style="fill:#263238"/><path d="M378.57 122.11a2 2 0 0 1-1.21.06c-.87-.24-.88-1-.71-1.73a2.06 2.06 0 0 1 1.92 1.67Z" style="fill:#ff9bbc"/><path d="M362.7 115.42c3.09.23 3.26-5.17 3.26-5.17s6.25-.57 7.36-8.52c0 0 8.76 3.64 13.66-.71s-6.7-16.52-21.64-6.57c0 0-6.85.77-8.21 6.24s1.87 14.46 5.57 14.73Z" style="fill:#263238"/><path d="M373.17 100.81a.08.08 0 0 0-.15 0c.69 5.35-3 10-8.63 9.27a.15.15 0 0 0-.05.29c5.53 1.29 11.04-3.99 8.83-9.56ZM378.79 90.72a19 19 0 0 1 5.5 1.75c2.55 1.39 5.78 4.81 3.75 7.88-2.79 4.2-9.29 2.62-13.25 1.34a.21.21 0 0 0-.18.39c3.94 2.05 12.33 3.06 14.36-2.17 2.26-5.77-5.97-8.83-10.18-9.19Z" style="fill:#263238"/><path d="M365.06 114.3s-3-5.5-5.5-4.47-.55 8.74 2.07 10a2.8 2.8 0 0 0 3.88-1.1Z" style="fill:#eb9481"/><path d="M360.16 112s-.06 0 0 .07c1.83 1 2.65 2.85 3.16 4.77a1.54 1.54 0 0 0-2.25-.66c-.05 0 0 .11 0 .11a1.71 1.71 0 0 1 1.82.79 8.4 8.4 0 0 1 .74 1.61c.07.18.39.13.34-.08.32-2.45-1.22-6.06-3.81-6.61Z" style="fill:#263238"/><path d="M348.54 142.69c-14.16 24.43-33.47 74.93-37.3 82.95-2.59 5.44 25.86 19.79 27.07 15.83 1.54-5.07 19.44-64.81 20.73-93.94.59-13.53-5.97-12.66-10.5-4.84Z" style="fill:#eb9481"/><path d="M339.08 238.74c-.67 4.93-4 14.87-6.51 16.38s-15.59 1.19-22.19 1.19-7.9-1.84-7.79-4.11 14-2.7 14-2.7-18.5 5.3-23.15 6.16-15.38 3.58-16.93-.28c-.7-1.74 2.24-3.5 2.24-3.5s-4.5 1.31-5.21-.93c-.82-2.54 2.76-3.94 2.76-3.94s-2.81.56-2.88-1.51c-.14-4.63 17.45-6.91 17.45-6.91s-13.47 6.56-13.9 2.77c-.6-5.23 27-11 29.88-13.26a54.2 54.2 0 0 0 5.85-5.68Z" style="fill:#eb9481"/><path d="M302.69 253.35a2 2 0 0 1 .62-1.76 6 6 0 0 1 1.61-1.05 21.67 21.67 0 0 1 3.78-1.22c2.6-.66 5.27-1.13 7.93-1.82a32.46 32.46 0 0 0-8.15.92 14.75 14.75 0 0 0-3.89 1.49 5.28 5.28 0 0 0-1.59 1.39 2.09 2.09 0 0 0-.31 2.05ZM278.71 251.88c1.9-.47 3.78-1 5.65-1.55s3.73-1.11 5.6-1.67l5.57-1.75c1.86-.58 3.71-1.16 5.59-1.72a43.74 43.74 0 0 0-5.78 1c-1.91.44-3.78 1-5.65 1.55s-3.72 1.2-5.55 1.89-3.65 1.42-5.43 2.25ZM296.65 240.57a38.39 38.39 0 0 0-5.33.74 49.31 49.31 0 0 0-5.22 1.34 47.09 47.09 0 0 0-5.05 1.89 36.72 36.72 0 0 0-4.79 2.47c1.7-.59 3.35-1.24 5.05-1.81s3.36-1.14 5.06-1.66 3.41-1 5.12-1.54 3.43-1 5.16-1.43ZM293.93 236.16a35.8 35.8 0 0 0-16.3 5.57c2.73-1 5.39-2 8.11-2.9s5.43-1.83 8.19-2.67Z" style="fill:#263238"/><path d="m309.58 224.37 31.19 15.24s16.29-64.66 18.3-87.32-6.69-17.45-12.71-6.81c-8.22 14.52-36.78 78.89-36.78 78.89Z" style="fill:#00b3ff"/><path d="m309.58 224.37 31.19 15.24s16.29-64.66 18.3-87.32-6.69-17.45-12.71-6.81c-8.22 14.52-36.78 78.89-36.78 78.89Z" style="fill:#050400;opacity:.2"/><path d="M340 231.69c-4.24-1.73-21.37-9.42-25-11.33-.24-.13-.22-.32.06-.21 12.85 4.85 20.89 9.46 25 11.37a.09.09 0 0 1-.06.17ZM344.64 223.55c.47-3.34 8.45-41.32 9.12-44.62s1.39-6.59 2.17-9.86l1.17-4.92c.43-1.63.82-3.26 1.28-4.89-.22 1.67-.51 3.33-.76 5l-.88 5c-.59 3.32-1.25 6.62-1.93 9.91s-9.27 41.13-10.17 44.38Z" style="fill:#263238"/><path d="M356.6 167.85a12.49 12.49 0 0 1 1-2.48 12 12 0 0 1 1.48-2.23 12.49 12.49 0 0 1-1 2.48 12 12 0 0 1-1.48 2.23Z" style="fill:#263238"/><path d="M435.36 76.43A20 20 0 0 1 402 89.05l-10 1.46 5-8.63a20 20 0 1 1 38.32-5.45Z" style="fill:#fff"/><path d="M435.36 76.43a20.1 20.1 0 0 1-4 10.11 22.28 22.28 0 0 1-1.81 2.08 20.81 20.81 0 0 1-2.1 1.78 19.29 19.29 0 0 1-4.82 2.68 19.57 19.57 0 0 1-8.14 1.34 17.12 17.12 0 0 1-2.76-.29 20.14 20.14 0 0 1-9.87-4.87l.24.07-10 1.53-.73.11.37-.64 5-8.64v.34a20.17 20.17 0 0 1 1.23-17.78 20.42 20.42 0 0 1 6.25-6.66 20.32 20.32 0 0 1 17.53-2.36 20.42 20.42 0 0 1 7.7 4.72 20.08 20.08 0 0 1 5.91 16.48Zm0 0a19.73 19.73 0 0 0-22.63-21.59 19.68 19.68 0 0 0-8.24 3.25 20.65 20.65 0 0 0-6 6.51A19.77 19.77 0 0 0 396 73a20 20 0 0 0 1.41 8.69l.07.18-.1.17-5 8.61-.36-.53 10-1.4h.14l.1.09a19.62 19.62 0 0 0 9.55 4.92 16.58 16.58 0 0 0 2.71.33 19.13 19.13 0 0 0 2.73 0 19.86 19.86 0 0 0 5.33-1.17 18.36 18.36 0 0 0 4.81-2.6 22.11 22.11 0 0 0 2.11-1.76 20.84 20.84 0 0 0 1.81-2.06 20 20 0 0 0 4.05-10.04Z" style="fill:#263238"/><path d="m413.18 85.73-8.52-8.63 2.86-2.82 4.98 5.03 10.34-16.21 3.39 2.17-13.05 20.46z" style="fill:#00b3ff"/></svg>